<svg width="390" height="240" viewBox="0 0 390 240" fill="none" xmlns="http://www.w3.org/2000/svg">
<path fill-rule="evenodd" clip-rule="evenodd" d="M91.0833 34.6667C91.0835 28.6837 95.9337 23.8335 101.917 23.8333C107.9 23.8332 112.75 28.6835 112.75 34.6667C112.75 40.6497 107.9 45.4999 101.917 45.5C95.9335 45.5001 91.0832 40.6498 91.0833 34.6667ZM89.506 46.0123C89.5029 46.0092 89.4999 46.0062 89.4968 46.0031C82.0681 38.5744 72.3714 34.416 63.6058 32.3707C54.9336 30.3471 46.4352 30.2242 41.0192 31.5787C38.117 32.3045 36.3527 35.2456 37.0785 38.1477C37.8043 41.0499 40.7454 42.8142 43.6475 42.0884C46.8981 41.2755 53.5664 41.1524 61.1442 42.9206C66.4965 44.1695 71.9266 46.2769 76.6236 49.4138C74.5274 51.6 71.7111 54.2813 68.5905 56.9684C63.8076 61.087 58.7985 64.7949 55.0776 66.6553C54.6526 66.8678 54.2678 67.1286 53.9264 67.4278C48.6439 68.6569 43.4056 68.8915 35.9671 65.4022C33.2587 64.1317 30.0332 65.2973 28.7627 68.0057C27.4923 70.7141 28.6579 73.9395 31.3663 75.21C41.999 80.1978 50.0589 79.5754 57.4217 77.7274C59.5469 77.194 61.4569 76.6258 63.2713 76.0861C67.8196 74.733 71.7674 73.5586 77 73.5586C82.2522 73.5586 86.5064 74.8198 91.3755 76.2633L91.3756 76.2634C91.8467 76.403 92.3236 76.5444 92.8077 76.6865C95.6781 77.5291 98.6881 75.8852 99.5307 73.0148C100.373 70.1444 98.7294 67.1344 95.859 66.2918C95.3772 66.1503 94.885 66.0034 94.3821 65.8532C92.4702 65.2823 90.404 64.6654 88.1684 64.1315C89.347 62.9238 90.511 61.6575 91.4908 60.4485C96.8855 63.0201 102.445 64.076 107.128 64.442C110.973 64.7425 114.374 64.5915 116.861 64.3697C118.109 64.2583 119.133 64.1285 119.865 64.0279C120.099 63.9958 120.334 63.9623 120.507 63.9376L120.697 63.9105L120.77 63.9005C123.554 63.6787 125.746 61.3505 125.75 58.5082C125.754 55.5166 123.332 53.0884 120.34 53.0845C119.961 53.084 119.621 53.1261 119.561 53.1336L119.553 53.1345C119.428 53.1494 119.297 53.1675 119.191 53.1823L118.917 53.2213L118.917 53.2213C118.764 53.2432 118.603 53.2661 118.391 53.2953C117.769 53.3807 116.925 53.4876 115.898 53.5792C113.834 53.7633 111.061 53.883 107.972 53.6416C101.715 53.1526 94.7348 51.2353 89.506 46.0123ZM120.841 63.8911L120.889 63.8855C120.89 63.8853 120.884 63.8859 120.87 63.8876C120.863 63.8884 120.853 63.8896 120.841 63.8911Z" fill="#FF8C2E" fill-opacity="0.2"/>
<path fill-rule="evenodd" clip-rule="evenodd" d="M238.922 52.5855C246.537 44.9702 246.537 32.6235 238.922 25.0083C231.307 17.3931 218.96 17.3931 211.345 25.0083L182.236 54.1175C174.62 61.7327 174.62 74.0795 182.236 81.6947C187.69 87.1488 195.571 88.6966 202.402 86.3382C202.452 86.3236 202.502 86.3074 202.553 86.2893C205.202 85.3496 207.688 83.8199 209.808 81.7C209.817 81.6914 209.825 81.6827 209.833 81.674L229.737 61.7708L229.726 61.7818L232.817 58.6915C232.822 58.6864 232.827 58.6813 232.831 58.6762L238.922 52.5855ZM196.022 60.3213C191.834 60.3213 188.439 63.7165 188.439 67.9046C188.439 72.0928 191.834 75.488 196.022 75.488C200.21 75.488 203.605 72.0928 203.605 67.9046C203.605 63.7165 200.21 60.3213 196.022 60.3213ZM181.939 67.9046C181.939 60.1266 188.244 53.8213 196.022 53.8213C203.8 53.8213 210.105 60.1266 210.105 67.9046C210.105 75.6826 203.8 81.988 196.022 81.988C188.244 81.988 181.939 75.6826 181.939 67.9046ZM214.92 87.6085C214.256 87.6085 213.934 86.7661 214.404 86.2962L243.514 57.187C243.515 57.185 243.518 57.1839 243.521 57.1839L264.999 57.1839C268.867 57.1839 270.797 61.8669 268.052 64.5923L246.139 86.3502C245.328 87.1562 244.23 87.6086 243.086 87.6086L214.92 87.6085Z" fill="#FF8C2E" fill-opacity="0.2"/>
<path fill-rule="evenodd" clip-rule="evenodd" d="M353.162 8.05537C342.301 10.974 333.046 17.8117 327.005 26.9592L335.978 29.3897L353.162 16.9049V8.05537ZM323.735 32.8076C321.018 38.6392 319.501 45.1424 319.501 52C319.501 56.9219 320.282 61.6613 321.728 66.1009L331.996 67.1801L340.578 55.5995L334.083 35.6105L323.735 32.8076ZM333.127 84.4699C329.71 81.1157 326.821 77.2265 324.594 72.9379L330.814 73.5917L333.127 84.4699ZM341.102 90.7254C348.047 95.0208 356.234 97.5 365.001 97.5C367.553 97.5 370.056 97.2899 372.494 96.8859C371.683 96.1201 371.308 94.9735 371.548 93.8481L376.318 71.4053L367.045 59.4384H345.823L336.986 71.3639L341.102 90.7254ZM403.922 75.5786C398.708 84.1676 390.731 90.8933 381.224 94.5225L378.396 92.8899L382.498 73.5917L402.12 71.5294L403.922 75.5786ZM407.633 67.9323C409.487 62.9738 410.501 57.6053 410.501 52C410.501 48.2627 410.05 44.6306 409.2 41.1551L392.394 31.9122L378.742 35.6104L372.26 55.5572L381.271 67.1849L403.789 64.8182C405.189 64.671 406.525 65.4423 407.097 66.7285L407.633 67.9323ZM398.897 21.6461C401.643 24.7109 403.98 28.1505 405.821 31.8785L396.86 26.9505L398.897 21.6461ZM393.804 16.7756C385.959 10.3534 375.93 6.5 365.001 6.5C363.195 6.5 361.413 6.60522 359.662 6.80987V16.9049L376.846 29.3896L390.368 25.7268L393.804 16.7756ZM340.451 34.1747L356.412 22.5781L372.374 34.1747L366.277 52.9384H346.548L340.451 34.1747Z" fill="#FF8C2E" fill-opacity="0.2"/>
<path fill-rule="evenodd" clip-rule="evenodd" d="M38.1735 183.294C37.2726 184.196 36.1933 184.878 35.0186 185.308C35.0995 186.194 35.1409 187.092 35.1409 188C35.1409 204.154 22.0452 217.25 5.89087 217.25C-10.2635 217.25 -23.3591 204.154 -23.3591 188C-23.3591 171.846 -10.2635 158.75 5.89087 158.75C6.7982 158.75 7.69587 158.791 8.58212 158.872C9.01068 157.7 9.69159 156.622 10.5908 155.722L21.1723 145.13C16.3961 143.427 11.2518 142.5 5.89087 142.5C-19.2381 142.5 -39.6091 162.871 -39.6091 188C-39.6091 213.129 -19.2381 233.5 5.89087 233.5C31.0198 233.5 51.3909 213.129 51.3909 188C51.3909 182.633 50.4615 177.482 48.755 172.701L38.1735 183.294ZM8.05616 170.515L8.05577 165.352C7.34319 165.284 6.62105 165.25 5.89087 165.25C-6.67361 165.25 -16.8591 175.436 -16.8591 188C-16.8591 200.564 -6.67361 210.75 5.89087 210.75C18.4554 210.75 28.6409 200.564 28.6409 188C28.6409 187.27 28.6065 186.548 28.5392 185.835L23.3778 185.834L13.5518 195.662C9.32141 199.893 2.46212 199.894 -1.76887 195.663C-5.99987 191.433 -6.00039 184.574 -1.77003 180.343L8.05616 170.515ZM20.6875 179.332L32.0411 179.333C32.6157 179.333 33.1668 179.105 33.5732 178.699L50.6637 161.61C52.0148 160.259 51.083 157.948 49.1727 157.912L36.2221 157.667L35.9771 144.715C35.941 142.805 33.6298 141.873 32.2788 143.224L15.1885 160.314C14.7821 160.72 14.5538 161.271 14.5538 161.846L14.5547 173.209L2.82654 184.938C1.13438 186.631 1.13456 189.374 2.82694 191.067C4.51932 192.759 7.26304 192.759 8.9552 191.066L20.6875 179.332Z" fill="#FF8C2E" fill-opacity="0.2"/>
<g clip-path="url(#clip0_6_558)">
<path fill-rule="evenodd" clip-rule="evenodd" d="M114.113 197.486L119.722 203.095L154.322 158.849C154.261 155.746 152.979 152.089 149.123 148.233C138.393 137.503 129.872 147.364 129.872 147.364L114.113 197.486ZM110.802 203.368C102.792 212.73 102.941 221.73 109.202 227.994C115.463 234.259 124.28 234.221 133.615 226.179L110.802 203.368ZM139.493 222.865L189.621 207.115C189.621 207.115 199.688 198.798 188.958 188.068C184.965 184.076 181.186 182.842 178.015 182.867L134.096 217.469L139.493 222.865ZM173.805 177.909C173.872 175.139 172.715 171.825 169.041 168.151C165.249 164.359 161.84 163.249 159.016 163.397L124.352 207.725L129.468 212.84L173.805 177.909Z" fill="#FF8C2E" fill-opacity="0.2"/>
</g>
<path fill-rule="evenodd" clip-rule="evenodd" d="M310.42 207.856C314.624 204.713 318.389 200.504 321.429 195.238C332.572 175.938 326.472 155.311 309.891 145.738C293.311 136.165 272.528 141.271 261.385 160.571C258.344 165.837 256.581 171.202 255.962 176.414L282.586 191.786L310.42 207.856ZM304.031 211.673L279.336 197.415L255.851 183.856C256.848 194.769 262.972 204.376 272.836 210.071C282.7 215.766 294.082 216.266 304.031 211.673ZM265.052 212.688L255.741 225.677C254.995 226.718 255.31 228.176 256.419 228.816L265.099 233.827C266.224 234.477 267.664 233.997 268.175 232.802L274.448 218.114C272.8 217.423 271.175 216.618 269.581 215.698C267.986 214.777 266.475 213.771 265.052 212.688ZM324.224 233.5C330.207 233.5 335.058 228.65 335.058 222.667C335.058 216.684 330.207 211.833 324.224 211.833C318.241 211.833 313.391 216.684 313.391 222.667C313.391 228.65 318.241 233.5 324.224 233.5Z" fill="#FF8C2E" fill-opacity="0.2"/>
<defs>
<clipPath id="clip0_6_558">
<rect width="104" height="104" fill="white" transform="translate(97.8909 136)"/>
</clipPath>
</defs>
</svg>
