<svg width="48" height="48" viewBox="0 0 48 48" fill="none" xmlns="http://www.w3.org/2000/svg">
<rect width="48" height="48" fill="#FF8C2E"/>
<circle cx="23.9062" cy="23.9062" r="14.1562" fill="white"/>
<path d="M25.2967 23.9083C25.4199 24.0785 25.9264 24.077 25.859 23.8041C25.2736 22.0007 23.6383 19.6024 20.8568 18.5434C17.9588 17.3945 16.3588 15.8092 16.9321 13.6694C17.5594 11.3284 21.5607 10.7736 26.4148 12.0743C30.0618 13.0515 35.1382 15.4114 34.1261 18.1393C33.4835 19.9077 31.454 20.0304 29.5386 19.5172C28.1218 19.1375 27.1619 18.3119 26.2839 17.3905C25.3632 16.4186 24.6674 15.7617 23.7499 14.673C23.4299 14.2932 22.9218 14.5099 23.1992 14.839C24.2367 16.2147 25.9192 18.3317 29.6035 20.5343C31.7623 21.8184 33.6103 23.8425 32.6405 26.3073C31.6315 28.9184 27.2579 29.3931 22.6401 28.1557C17.891 26.8832 14.5817 24.3304 14.7182 21.407C14.8179 19.3559 16.2557 17.6634 19.7453 18.5984C23.0513 19.4843 24.3881 21.8419 25.2967 23.9083Z" fill="#FF8C2E"/>
</svg>
