<svg width="180" height="45" viewBox="0 0 180 45" fill="none" xmlns="http://www.w3.org/2000/svg">
<path d="M1.23066 21.4962C0.984525 15.3264 3.49506 12.3885 6.59632 11.8009C10.6329 11.0174 14.0787 8.96083 14.7679 5.63112C15.6047 1.46899 18.1153 0.636562 22.0534 0.636562C25.9915 0.636562 28.059 1.46899 29.1419 5.48422C30.0772 9.00979 34.5568 10.9684 38.298 11.8498C41.8915 12.6823 43.3683 17.0403 42.9253 21.4962C42.3346 27.3721 39.9717 29.3308 34.803 29.3308C28.2559 29.3308 25.5484 28.3025 25.5484 21.3493C25.5484 17.3341 24.2685 14.5919 21.2657 12.2905C20.4289 11.654 19.1982 12.7802 20.2812 13.5637C22.5948 15.1795 24.0716 17.3341 24.0716 21.8879C24.0716 27.8128 21.6595 29.1839 12.7496 29.1839C5.75947 29.1839 1.47679 27.4211 1.23066 21.4962ZM5.95638 43.6289C2.21518 43.2372 0 40.9848 0 36.4309C0 32.7584 2.21518 29.7715 5.95638 30.2122C16.9338 31.3384 27.1237 31.3384 38.1503 30.2122C41.9408 29.7715 44.1067 32.7584 44.1067 36.4309C44.1067 40.9848 41.9408 43.2372 38.1011 43.6289C27.1237 44.7552 16.9338 44.7552 5.95638 43.6289Z" fill="#FF8C2E"/>
<path d="M59.2288 31.7301C59.0811 31.4363 59.0319 31.0936 59.0319 30.7019C59.0319 30.2612 59.1303 29.8694 59.278 29.5756C56.4721 29.4287 53.7647 29.2818 51.3034 28.988C48.6944 28.7432 46.8238 27.3232 46.8238 24.3362C46.8238 21.3003 48.6944 19.8313 51.3034 19.5865C51.7956 19.5375 52.2879 19.4886 52.7801 19.4396C52.4356 16.8934 52.3863 14.1513 52.5832 11.4091C52.1402 11.3602 51.7464 11.3112 51.3034 11.2622C48.6944 11.0174 46.8238 9.59739 46.8238 6.56148C46.8238 3.57454 48.6944 2.10555 51.3034 1.86072C56.1275 1.32209 61.9855 1.07726 67.4003 1.07726C72.766 1.07726 78.6732 1.32209 83.4973 1.86072C86.1063 2.10555 87.9769 3.57454 87.9769 6.56148C87.9769 9.59739 86.1063 11.0174 83.4973 11.2622C82.9558 11.3112 82.4143 11.3602 81.8729 11.4091C82.0698 14.1023 82.0205 16.8934 81.676 19.3906C82.3159 19.4396 82.9066 19.5375 83.4973 19.5865C86.1063 19.8313 87.9769 21.3003 87.9769 24.3362C87.9769 27.3232 86.1063 28.7432 83.4973 28.988C81.036 29.2818 78.2793 29.4287 75.4734 29.5756C75.6211 29.8694 75.7196 30.2612 75.7196 30.7019C75.7196 31.0936 75.6211 31.4363 75.5227 31.7301C78.1317 31.5832 80.7899 31.3874 83.4481 31.1425C87.2385 30.7508 89.4045 33.5419 89.4045 36.9695C89.4045 41.1806 87.2385 43.3351 83.3989 43.7269C72.4214 44.8041 62.2316 44.8041 51.2541 43.7269C47.5129 43.3351 45.2978 41.1806 45.2978 36.9695C45.2978 33.5419 47.5129 30.7508 51.2541 31.1425C53.9616 31.3874 56.6198 31.5832 59.2288 31.7301ZM64.9883 18.803C65.7759 18.803 66.6127 18.803 67.4003 18.803C68.0895 18.803 68.8279 18.803 69.5171 18.803C69.4678 16.5506 69.5663 14.2982 69.8617 12.0457C69.0248 12.0457 68.188 12.0457 67.4003 12.0457C66.5143 12.0457 65.579 12.0457 64.6437 12.0457C64.9883 14.2982 65.0867 16.5506 64.9883 18.803Z" fill="#FF8C2E"/>
<path d="M126.432 45C122.445 45 119.737 42.7476 120.23 38.3406C121.46 27.8128 121.46 17.2361 120.279 7.14908C119.737 2.30141 122.445 0 126.432 0C129.878 0 132.339 1.95865 132.733 5.97388C133.816 16.5506 133.816 28.4984 132.733 39.124C132.339 43.0413 129.878 45 126.432 45ZM104.28 43.8738C97.9302 42.4538 96.0104 36.284 98.7671 31.3384C100.145 28.7922 103.296 26.2459 107.234 24.5811C108.612 24.0424 107.726 22.3776 106.2 23.21C103.887 24.3362 102.016 24.9728 99.407 25.2176C93.6475 25.6094 92.1708 24.1404 92.3184 20.321C92.4661 16.8934 94.3367 15.6202 99.2593 15.6202C100.736 15.6202 104.92 15.6202 107.234 15.7671C108.809 15.8161 108.858 13.8575 107.234 13.8575H96.5519C92.8599 13.8575 90.4478 11.9478 90.4478 7.19804C90.4478 3.9173 93.1061 1.95865 96.5519 1.17519C99.8008 0.391731 106.594 0.391731 109.991 1.17519C114.224 2.10555 116.193 4.5049 117.325 10.4788C118.753 17.2361 118.458 27.0783 117.325 33.5909C116.193 41.0337 109.745 45 104.28 43.8738Z" fill="#FF8C2E"/>
<path d="M149.824 11.9478C147.018 11.8988 144.311 11.8009 141.85 11.556C139.241 11.3112 137.37 9.69532 137.37 6.75735C137.37 3.81937 139.241 2.54625 141.85 2.25245C146.674 1.71382 152.532 1.51796 157.947 1.51796C163.312 1.51796 169.219 1.71382 174.044 2.25245C176.653 2.54625 178.474 3.81937 178.474 6.75735C178.474 9.69532 176.653 11.3112 174.044 11.556C171.632 11.8009 168.924 11.8988 166.167 11.9478C167.94 13.7106 171.287 14.7878 174.191 15.3264C177.785 16.012 179.262 19.4886 178.819 23.0631C178.228 27.7149 175.865 29.3308 170.696 29.3308C162.574 29.3308 161.442 28.4984 161.442 22.9652C161.442 19.7334 160.162 17.5299 157.159 15.7182C156.322 15.1795 155.092 16.1099 156.174 16.6975C158.488 18.0196 159.965 19.7334 159.965 23.3569C159.965 28.1066 160.162 29.2329 148.643 29.2329C141.653 29.2329 137.37 27.7639 137.124 23.0631C136.878 18.1175 139.388 15.7671 142.49 15.2775C145.64 14.7878 148.446 13.6616 149.824 11.9478ZM141.85 43.6779C138.108 43.2862 135.893 41.0337 135.893 36.4799C135.893 32.8074 138.108 29.8205 141.85 30.2612C152.827 31.3874 163.017 31.3874 174.044 30.2612C177.834 29.8205 180 32.8074 180 36.4799C180 41.0337 177.834 43.2862 173.994 43.6779C163.017 44.8041 152.827 44.8041 141.85 43.6779Z" fill="#FF8C2E"/>
</svg>
