<svg width="69" height="26" viewBox="0 0 69 26" fill="none" xmlns="http://www.w3.org/2000/svg">
<path fill-rule="evenodd" clip-rule="evenodd" d="M19.1163 4.47517C18.6392 4.19741 18.1028 4.01652 17.5349 3.93531L16.0264 5.44381L14.8416 4.25908C14.3676 4.43787 13.9001 4.68155 13.4527 4.9915L14.9657 6.50447L13.1979 8.27224L11.6851 6.75941C11.3752 7.20684 11.1316 7.67444 10.9529 8.14852L12.1373 9.3329L10.6296 10.8406C10.7108 11.4085 10.8917 11.945 11.1694 12.4221L13.1979 10.3936L14.6122 11.8078L12.5839 13.8361C13.0611 14.1137 13.5977 14.2945 14.1658 14.3755L15.6728 12.8684L16.8563 14.0519C17.3304 13.8732 17.798 13.6296 18.2454 13.3197L16.7335 11.8078L18.5012 10.04L20.0133 11.5521C20.3233 11.1048 20.567 10.6372 20.7458 10.1632L19.5619 8.97935L21.0698 7.4715C20.9887 6.90343 20.808 6.36688 20.5303 5.88962L18.5012 7.91869L17.087 6.50447L19.1163 4.47517ZM20.9761 4.02877C18.4557 1.5084 14.1749 1.99108 11.4301 4.73588C9.90043 6.26558 9.07333 8.27235 9.07709 10.1856C8.9028 11.3663 8.5251 12.927 8.1287 14.2643C7.92738 14.9435 7.72517 15.5517 7.5479 16.0123C7.45894 16.2434 7.38016 16.4271 7.31469 16.5599C7.27292 16.6446 7.24634 16.688 7.23627 16.7045C7.23519 16.7063 7.2343 16.7077 7.2336 16.7089C7.23263 16.7105 7.23203 16.7115 7.2318 16.7121L5.76682 18.1736C5.7416 18.1753 5.71621 18.178 5.69067 18.1816L4.86571 18.2995C4.65152 18.3301 4.45302 18.4293 4.30003 18.5823L1.70708 21.1752C1.31655 21.5658 1.31655 22.1989 1.70708 22.5895L2.41418 23.2966C2.80471 23.6871 3.43787 23.6871 3.8284 23.2966L6.42135 20.7036C6.57434 20.5506 6.67359 20.3521 6.70419 20.1379L6.82204 19.313C6.82595 19.2856 6.82873 19.2584 6.83041 19.2313L8.29229 17.7729C8.29292 17.7727 8.29542 17.7712 8.30013 17.7683C8.31659 17.7583 8.36002 17.7317 8.44473 17.6899C8.57749 17.6245 8.7612 17.5457 8.99234 17.4567C9.4529 17.2794 10.0611 17.0772 10.7403 16.8759C12.0771 16.4797 13.637 16.1022 14.8174 15.9278C16.7312 15.932 18.7388 15.1049 20.269 13.5747C23.0138 10.8299 23.4964 6.54914 20.9761 4.02877ZM9.56685 14.6906C9.69726 14.2506 9.8267 13.7841 9.94862 13.3113C10.1649 13.6561 10.4227 13.9814 10.723 14.2818C11.0233 14.5821 11.3486 14.8397 11.6932 15.056C11.2204 15.1779 10.7539 15.3074 10.314 15.4378C9.92958 15.5517 9.5614 15.6676 9.22334 15.7813C9.33703 15.4432 9.4529 15.075 9.56685 14.6906ZM16.0264 7.56513L14.2586 9.3329L15.6728 10.7471L17.4406 8.97935L16.0264 7.56513Z" fill="#5F5F67"/>
<path d="M35.7222 8.42188C35.73 10.8047 38.4487 12.9219 40.8628 13.375L40.3003 14.4062C38.1987 13.9219 35.9956 12.4297 35.0972 10.3906C34.1909 12.4297 31.9956 13.9141 29.8941 14.4062L29.3316 13.375C31.7378 12.9141 34.4331 10.8125 34.4409 8.42188V7.35938H35.7222V8.42188ZM28.8003 18.375V17.3594H41.5191V18.375H28.8003ZM50.0078 7.51562V8.125C50.0078 9.07812 50.0078 10.7344 49.5703 13.1328C50.1641 13.0781 50.75 13.0156 51.3203 12.9375L51.4141 13.8281C49.9844 14.0703 48.5078 14.2109 47.0703 14.2891V19.5156H45.8516V14.3516C44.5469 14.3984 43.3047 14.4062 42.1953 14.4062L42.0234 13.3906C43.8594 13.3906 46.1016 13.375 48.3203 13.2266C48.4844 12.4141 48.5859 11.6875 48.6641 11.0391L43.1172 11.5156L42.9297 10.4531L48.7422 10.125C48.7891 9.49219 48.8047 8.96094 48.8047 8.53125H43.2266V7.51562H50.0078ZM49.2266 16.4844V15.4844H52.4297V6.39062H53.6484V20.2812H52.4297V16.4844H49.2266ZM60.4341 10.1094C60.4263 12.6484 62.1528 15.1953 64.1997 16.125L63.4497 17.0938C61.8638 16.3281 60.4966 14.6797 59.8325 12.7031C59.1919 14.7969 57.8247 16.5547 56.1997 17.375L55.4184 16.3438C57.4888 15.3984 59.1997 12.7422 59.2153 10.1094V7.57812H60.4341V10.1094ZM65.7153 20.2969V6.375H66.9497V20.2969H65.7153Z" fill="#5F5F67"/>
</svg>
