<svg width="82" height="26" viewBox="0 0 82 26" fill="none" xmlns="http://www.w3.org/2000/svg">
<g clip-path="url(#clip0_54_3305)">
<path fill-rule="evenodd" clip-rule="evenodd" d="M3.74356 15.189L5.03786 16.4833L13.0225 6.27282C13.0086 5.55676 12.7127 4.7128 11.8227 3.82284C9.34652 1.34673 7.38031 3.62242 7.38031 3.62242L3.74356 15.189ZM2.97954 16.5463C1.13093 18.7068 1.16539 20.7838 2.61022 22.2294C4.05507 23.675 6.08973 23.6662 8.24395 21.8105L2.97954 16.5463ZM9.6005 21.0458L21.1685 17.4112C21.1685 17.4112 23.4917 15.4917 21.0155 13.0156C20.0941 12.0943 19.222 11.8096 18.4902 11.8154L8.35505 19.8004L9.6005 21.0458ZM17.5187 10.6712C17.5341 10.032 17.2671 9.26725 16.4193 8.41947C15.5442 7.54432 14.7574 7.28805 14.1059 7.32239L6.10644 17.5518L7.28693 18.7323L17.5187 10.6712Z" fill="#5F5F67"/>
</g>
<path d="M30.3137 7.70312V11.0938H33.3294V7.70312H34.47V16.7969H29.1419V7.70312H30.3137ZM30.3137 15.7812H33.3294V12.0938H30.3137V15.7812ZM40.5325 6.375V20.2656H39.345V12.9062H37.4075V19.5625H36.2356V6.67188H37.4075V11.8906H39.345V6.375H40.5325ZM53.1931 13.0625V14.0781H43.5994V7.67188H53.0525V8.6875H44.8181V13.0625H53.1931ZM54.6931 17.3438V18.375H41.9744V17.3438H54.6931ZM62.5725 7.59375V14.0312H56.0569V7.59375H62.5725ZM57.26 8.60938V13.0469H61.3694V8.60938H57.26ZM66.7913 6.39062V16.375H65.5725V6.39062H66.7913ZM67.2288 18.7812V19.7969H57.8225V15.4062H59.0413V18.7812H67.2288ZM80.1862 6.39062V16.7031H78.9519V11.3125H76.2331V10.2969H78.9519V6.39062H80.1862ZM80.5612 18.9375V19.9688H71.2331V15.8125H72.4675V18.9375H80.5612ZM75.6394 7.46875V8.48438H70.6081V10.4219H75.2644V11.4062H70.6081V13.4688C73.1706 13.4688 74.6237 13.4141 76.3894 13.0938L76.4987 14.1094C74.655 14.4375 73.1237 14.5 70.405 14.5H69.3894V7.46875H75.6394Z" fill="#5F5F67"/>
<defs>
<clipPath id="clip0_54_3305">
<rect width="24" height="24" fill="white" transform="translate(0 1)"/>
</clipPath>
</defs>
</svg>
