<svg width="24" height="24" viewBox="0 0 24 24" fill="none" xmlns="http://www.w3.org/2000/svg">
<g clip-path="url(#clip0_54_3587)">
<path fill-rule="evenodd" clip-rule="evenodd" d="M3.74356 14.189L5.03786 15.4833L13.0225 5.27282C13.0086 4.55676 12.7127 3.7128 11.8227 2.82284C9.34652 0.346733 7.38031 2.62242 7.38031 2.62242L3.74356 14.189ZM2.97954 15.5463C1.13093 17.7068 1.16539 19.7838 2.61022 21.2294C4.05507 22.675 6.08973 22.6662 8.24395 20.8105L2.97954 15.5463ZM9.6005 20.0458L21.1685 16.4112C21.1685 16.4112 23.4917 14.4917 21.0155 12.0156C20.0941 11.0943 19.222 10.8096 18.4902 10.8154L8.35505 18.8004L9.6005 20.0458ZM17.5187 9.67124C17.5341 9.03205 17.2671 8.26725 16.4193 7.41947C15.5442 6.54432 14.7574 6.28805 14.1059 6.32239L6.10644 16.5518L7.28693 17.7323L17.5187 9.67124Z" fill="#5F5F67"/>
</g>
<defs>
<clipPath id="clip0_54_3587">
<rect width="24" height="24" fill="white"/>
</clipPath>
</defs>
</svg>
