<svg width="24" height="24" viewBox="0 0 24 24" fill="none" xmlns="http://www.w3.org/2000/svg">
<path fill-rule="evenodd" clip-rule="evenodd" d="M9.00581 2.02128C8.98465 1.97681 8.9341 1.95454 8.88706 1.96912C7.09958 2.52322 5.51645 3.54195 4.27885 4.88414C4.23883 4.92755 4.2457 4.99593 4.2927 5.03168C5.51809 5.96385 6.49015 7.21187 7.08754 8.65437C7.10595 8.69882 7.1531 8.72434 7.2003 8.71506C8.38547 8.48216 9.60098 8.33385 10.8403 8.27669C10.9001 8.27393 10.9444 8.21971 10.9346 8.16062C10.5753 5.99878 9.91786 3.93776 9.00581 2.02128ZM3.22294 6.23472C3.25418 6.18726 3.31882 6.17595 3.36416 6.21018C4.31527 6.92823 5.08385 7.87522 5.58797 8.96919C5.61368 9.02499 5.58236 9.09007 5.52306 9.10611C4.22616 9.45681 2.97148 9.91029 1.7683 10.4573C1.69621 10.49 1.61619 10.4305 1.62851 10.3523C1.86527 8.85015 2.42051 7.45386 3.22294 6.23472ZM6.11668 10.6093C6.10578 10.5531 6.04952 10.5184 5.99428 10.5331C4.44642 10.9458 2.9621 11.5142 1.55913 12.2205C1.52472 12.2379 1.5034 12.2736 1.50452 12.3121C1.56321 14.3227 2.18715 16.1916 3.22295 17.7653C3.25418 17.8127 3.31883 17.824 3.36417 17.7898C5.11702 16.4665 6.24994 14.3655 6.24994 12C6.24994 11.5243 6.20413 11.0594 6.11668 10.6093ZM20.4777 5.96717C20.5222 5.93743 20.5822 5.94885 20.6129 5.99274C21.5038 7.26775 22.1189 8.74979 22.3714 10.3523C22.3838 10.4305 22.3037 10.49 22.2316 10.4573C20.8918 9.84816 19.4881 9.355 18.0333 8.99059C17.9723 8.97531 17.94 8.90829 17.9674 8.85165C18.5329 7.68033 19.4042 6.6843 20.4777 5.96717ZM19.5148 4.66666C19.558 4.71092 19.5502 4.78331 19.4995 4.81869C18.1613 5.75223 17.0963 7.05025 16.4483 8.56884C16.4299 8.61205 16.3841 8.63706 16.3379 8.62888C15.1053 8.41098 13.8412 8.28429 12.5529 8.25606C12.5041 8.25499 12.4632 8.21908 12.4557 8.17092C12.1044 5.90884 11.4467 3.74807 10.5265 1.73236C10.4987 1.67152 10.5369 1.6009 10.6032 1.59209C11.0602 1.53135 11.5264 1.5 12 1.5C14.9456 1.5 17.608 2.71296 19.5148 4.66666ZM20.4777 18.0328C20.5222 18.0626 20.5822 18.0512 20.6129 18.0073C21.7467 16.3847 22.4337 14.4268 22.4954 12.3121C22.4965 12.2736 22.4752 12.2379 22.4408 12.2205C20.8942 11.4419 19.2487 10.8309 17.5283 10.4112C17.4742 10.3981 17.4198 10.4318 17.4082 10.4863C17.3045 10.9745 17.2499 11.4809 17.2499 12C17.2499 14.516 18.5316 16.7327 20.4777 18.0328ZM15.8563 10.0683C15.9127 10.0778 15.9494 10.1326 15.9377 10.1886C15.8146 10.773 15.7499 11.379 15.7499 12C15.7499 14.9732 17.2329 17.6001 19.4994 19.1813C19.5502 19.2167 19.558 19.2891 19.5148 19.3333C17.608 21.287 14.9456 22.5 12 22.5C11.5264 22.5 11.0602 22.4686 10.6032 22.4079C10.5369 22.3991 10.4987 22.3285 10.5264 22.2677C11.9544 19.1399 12.7501 15.6629 12.7501 12C12.7501 11.2828 12.7196 10.5727 12.6598 9.87092C12.6547 9.81128 12.7026 9.76034 12.7624 9.76227C13.8128 9.79611 14.8456 9.89962 15.8563 10.0683ZM11.2501 12C11.2501 11.2783 11.2172 10.5643 11.1529 9.85933C11.148 9.8066 11.1028 9.76693 11.0499 9.76906C9.89597 9.81544 8.76372 9.94592 7.65907 10.1545C7.6041 10.1649 7.56864 10.2185 7.57962 10.2734C7.69133 10.8316 7.74994 11.4089 7.74994 12C7.74994 14.8434 6.39365 17.3701 4.29271 18.9683C4.24572 19.0041 4.23883 19.0724 4.27885 19.1159C5.51645 20.458 7.09958 21.4768 8.88706 22.0309C8.9341 22.0455 8.98464 22.0232 9.00581 21.9787C10.4448 18.955 11.2501 15.5716 11.2501 12Z" fill="#5F5F67"/>
</svg>
