<svg width="24" height="24" viewBox="0 0 24 24" fill="none" xmlns="http://www.w3.org/2000/svg">
<path fill-rule="evenodd" clip-rule="evenodd" d="M2.5 15.5C2.5 12.9896 3.43367 10.4791 4.25927 8.75H9.74073C9.89328 9.0695 10.0495 9.41567 10.2029 9.78359C8.53982 11.3351 7.5 13.5461 7.5 16C7.5 18.246 8.37115 20.2886 9.794 21.8083C9.5968 22.1518 9.41714 22.4264 9.2788 22.6251C9.1092 22.8687 8.8284 23 8.53162 23H5.46837C5.1716 23 4.89139 22.8694 4.72176 22.6259C4.07016 21.6905 2.5 19.0663 2.5 15.5ZM8.84893 7.0666C8.88254 7.12382 8.91809 7.18501 8.95534 7.25H5.04466C5.08204 7.18478 5.11771 7.12339 5.15142 7.066C5.3559 6.71791 5.35371 6.28114 5.17081 5.92125C4.8794 5.34785 4.5 4.42393 4.5 3.5C4.5 2 5.5 1 7 1C8.5 1 9.5 2 9.5 3.5C9.5 4.42393 9.1206 5.34785 8.82919 5.92125C8.64629 6.28114 8.64446 6.7185 8.84893 7.0666ZM10.5134 20.3475C9.56589 19.1534 9 17.6428 9 16C9 14.2094 9.67235 12.5758 10.7784 11.3379C12.0602 9.90315 13.9246 9 16 9C19.866 9 23 12.134 23 16C23 19.866 19.866 23 16 23C13.7768 23 11.7956 21.9636 10.5134 20.3475ZM15.5802 15.7811C15.3041 16.2594 14.6925 16.4232 14.2142 16.1471C13.7359 15.8709 13.572 15.2594 13.8481 14.7811C14.1243 14.3028 14.7359 14.1389 15.2142 14.415C15.6925 14.6912 15.8563 15.3028 15.5802 15.7811ZM14.1649 13.2321C14.6431 13.5082 15.2547 13.3443 15.5309 12.866C15.807 12.3877 15.6431 11.7761 15.1649 11.5C14.6866 11.2239 14.075 11.3877 13.7988 11.866C13.5227 12.3443 13.6866 12.9559 14.1649 13.2321ZM12.9821 14.2811C12.7059 14.7594 12.0943 14.9232 11.616 14.6471C11.1377 14.3709 10.9739 13.7594 11.25 13.2811C11.5261 12.8028 12.1377 12.6389 12.616 12.915C13.0943 13.1912 13.2582 13.8028 12.9821 14.2811Z" fill="#5F5F67"/>
</svg>
