<svg width="56" height="26" viewBox="0 0 56 26" fill="none" xmlns="http://www.w3.org/2000/svg">
<path fill-rule="evenodd" clip-rule="evenodd" d="M2.5 16.5C2.5 13.9896 3.43367 11.4791 4.25927 9.75H9.74073C9.89328 10.0695 10.0495 10.4157 10.2029 10.7836C8.53982 12.3351 7.5 14.5461 7.5 17C7.5 19.246 8.37115 21.2886 9.794 22.8083C9.5968 23.1518 9.41714 23.4264 9.2788 23.6251C9.1092 23.8687 8.8284 24 8.53162 24H5.46837C5.1716 24 4.89139 23.8694 4.72176 23.6259C4.07016 22.6905 2.5 20.0663 2.5 16.5ZM8.84893 8.0666C8.88254 8.12382 8.91809 8.18501 8.95534 8.25H5.04466C5.08204 8.18478 5.11771 8.12339 5.15142 8.066C5.3559 7.71791 5.35371 7.28114 5.17081 6.92125C4.8794 6.34785 4.5 5.42393 4.5 4.5C4.5 3 5.5 2 7 2C8.5 2 9.5 3 9.5 4.5C9.5 5.42393 9.1206 6.34785 8.82919 6.92125C8.64629 7.28114 8.64446 7.7185 8.84893 8.0666ZM10.5134 21.3475C9.56589 20.1534 9 18.6428 9 17C9 15.2094 9.67235 13.5758 10.7784 12.3379C12.0602 10.9032 13.9246 10 16 10C19.866 10 23 13.134 23 17C23 20.866 19.866 24 16 24C13.7768 24 11.7956 22.9636 10.5134 21.3475ZM15.5802 16.7811C15.3041 17.2594 14.6925 17.4232 14.2142 17.1471C13.7359 16.8709 13.572 16.2594 13.8481 15.7811C14.1243 15.3028 14.7359 15.1389 15.2142 15.415C15.6925 15.6912 15.8563 16.3028 15.5802 16.7811ZM14.1649 14.2321C14.6431 14.5082 15.2547 14.3443 15.5309 13.866C15.807 13.3877 15.6431 12.7761 15.1649 12.5C14.6866 12.2239 14.075 12.3877 13.7988 12.866C13.5227 13.3443 13.6866 13.9559 14.1649 14.2321ZM12.9821 15.2811C12.7059 15.7594 12.0943 15.9232 11.616 15.6471C11.1377 15.3709 10.9739 14.7594 11.25 14.2811C11.5261 13.8028 12.1377 13.6389 12.616 13.915C13.0943 14.1912 13.2582 14.8028 12.9821 15.2811Z" fill="#5F5F67"/>
<path d="M31.8806 6.60938V7.9375H38.7556V6.60938H39.9744V11.1719H35.8806V12.5469H41.6306V13.5469H28.9744V12.5469H34.6775V11.1719H30.6619V6.60938H31.8806ZM30.5056 15.6406V14.7031H40.0056V17.7812H31.7556V19.1406H40.4275V20.1094H30.5369V16.875H38.8025V15.6406H30.5056ZM31.8806 10.2188H38.7556V8.875H31.8806V10.2188ZM53.7913 6.39062V14.9375H52.5725V6.39062H53.7913ZM43.0256 8.29688V7.26562H49.3694V11.0781H44.2444V13.0469C46.7288 13.0469 48.5803 12.9766 50.8381 12.6094L50.9788 13.625C48.6428 14.0078 46.7444 14.0703 44.1819 14.0781H43.0569V10.1094H48.1506V8.29688H43.0256ZM44.4944 17.7344C44.4866 16.1406 46.26 15.2188 49.1819 15.2188C52.1038 15.2188 53.885 16.1406 53.885 17.7344C53.885 19.3203 52.1038 20.2344 49.1819 20.2344C46.26 20.2344 44.4866 19.3203 44.4944 17.7344ZM45.6975 17.7344C45.7053 18.6875 47.0178 19.2578 49.1819 19.25C51.3381 19.2578 52.6584 18.6875 52.6506 17.7344C52.6584 16.7812 51.3381 16.2031 49.1819 16.2031C47.0178 16.2031 45.7053 16.7812 45.6975 17.7344Z" fill="#5F5F67"/>
</svg>
