<svg width="20" height="22" viewBox="0 0 20 22" fill="none" xmlns="http://www.w3.org/2000/svg">
<g id="Calendar">
<path id="Exclude" fill-rule="evenodd" clip-rule="evenodd" d="M0.29847 6.75C0.665975 3.92873 3.07855 1.75 6 1.75H14C16.9214 1.75 19.334 3.92873 19.7015 6.75H0.29847ZM0.25 8.25V15.5C0.25 18.6756 2.82436 21.25 6 21.25H14C17.1756 21.25 19.75 18.6756 19.75 15.5V8.25H0.25ZM4.5 12.25C4.08579 12.25 3.75 11.9142 3.75 11.5C3.75 11.0858 4.08579 10.75 4.5 10.75H5.5C5.91421 10.75 6.25 11.0858 6.25 11.5C6.25 11.9142 5.91421 12.25 5.5 12.25H4.5ZM8.75 11.5C8.75 11.9142 9.08579 12.25 9.5 12.25H10.5C10.9142 12.25 11.25 11.9142 11.25 11.5C11.25 11.0858 10.9142 10.75 10.5 10.75H9.5C9.08579 10.75 8.75 11.0858 8.75 11.5ZM14.5 12.25C14.0858 12.25 13.75 11.9142 13.75 11.5C13.75 11.0858 14.0858 10.75 14.5 10.75H15.5C15.9142 10.75 16.25 11.0858 16.25 11.5C16.25 11.9142 15.9142 12.25 15.5 12.25H14.5ZM3.75 15.5C3.75 15.9142 4.08579 16.25 4.5 16.25H5.5C5.91421 16.25 6.25 15.9142 6.25 15.5C6.25 15.0858 5.91421 14.75 5.5 14.75H4.5C4.08579 14.75 3.75 15.0858 3.75 15.5ZM9.5 16.25C9.08579 16.25 8.75 15.9142 8.75 15.5C8.75 15.0858 9.08579 14.75 9.5 14.75H10.5C10.9142 14.75 11.25 15.0858 11.25 15.5C11.25 15.9142 10.9142 16.25 10.5 16.25H9.5ZM13.75 15.5C13.75 15.9142 14.0858 16.25 14.5 16.25H15.5C15.9142 16.25 16.25 15.9142 16.25 15.5C16.25 15.0858 15.9142 14.75 15.5 14.75H14.5C14.0858 14.75 13.75 15.0858 13.75 15.5ZM14.5 0.25C14.0858 0.25 13.75 0.585786 13.75 1V4C13.75 4.41421 14.0858 4.75 14.5 4.75C14.9142 4.75 15.25 4.41421 15.25 4V1C15.25 0.585786 14.9142 0.25 14.5 0.25ZM5.5 0.25C5.08579 0.25 4.75 0.585786 4.75 1V4C4.75 4.41421 5.08579 4.75 5.5 4.75C5.91421 4.75 6.25 4.41421 6.25 4V1C6.25 0.585786 5.91421 0.25 5.5 0.25Z" fill="#31313B"/>
</g>
</svg>
