<svg width="24" height="24" viewBox="0 0 24 24" fill="none" xmlns="http://www.w3.org/2000/svg">
<path fill-rule="evenodd" clip-rule="evenodd" d="M14.75 1C13.3693 1.00003 12.25 2.11931 12.25 3.5C12.25 4.88073 13.3693 6.00003 14.75 6C16.1307 5.99997 17.25 4.88069 17.25 3.5C17.25 2.11927 16.1307 0.999971 14.75 1ZM14.1708 9.87869C14.3389 9.97804 14.5083 10.0775 14.6803 10.1767C15.5372 10.6707 16.5098 11.189 17.4733 11.3565C17.9814 11.4449 18.5314 11.4454 19.0849 11.2694C19.6451 11.0912 20.1292 10.7574 20.5365 10.2985C21.3119 9.42482 21.8353 8.06762 22.2223 6.26194C22.3669 5.58691 21.937 4.92242 21.2619 4.77777C20.5869 4.63312 19.9224 5.06308 19.7778 5.73811C19.4147 7.43243 19.0006 8.26273 18.6667 8.63904C18.5193 8.8051 18.4057 8.86197 18.3272 8.88694C18.2421 8.91403 18.1123 8.93015 17.9017 8.89351C17.4277 8.81108 16.8065 8.51682 15.929 8.01087C15.7092 7.88414 15.4734 7.74421 15.2256 7.59712L15.2256 7.59709L15.2256 7.59708C14.5645 7.2047 13.8178 6.76142 13.0588 6.38198C11.8449 5.77502 10.7416 5.62762 9.79704 5.60963C9.40952 5.60225 9.03619 5.61698 8.71969 5.62947H8.71967L8.55988 5.63565C8.19126 5.64934 7.91796 5.65324 7.68088 5.63066C7.28624 5.59307 7.05253 5.49545 6.79987 5.17669C6.47426 4.76589 6.08559 3.93363 5.72227 2.23811C5.57762 1.56308 4.91313 1.13312 4.2381 1.27777C3.56307 1.42242 3.13311 2.0869 3.27776 2.76194C3.66444 4.56642 4.15073 5.85916 4.84068 6.72961C5.60359 7.6921 6.52605 8.03198 7.44385 8.11939C7.86299 8.15931 8.28496 8.14758 8.65265 8.13393L8.83167 8.12706H8.83168C9.14935 8.11467 9.44104 8.1033 9.74943 8.10917C9.83465 8.1108 9.92007 8.11376 10.0058 8.11843C8.93683 10.0577 8.06258 11.7107 7.43485 13.0232C7.08306 13.7588 6.79845 14.4085 6.59926 14.9542C6.41505 15.4587 6.25001 16.0127 6.25001 16.5C6.25001 16.8711 6.33259 17.4427 6.42327 17.9868C6.52021 18.5684 6.64815 19.2395 6.77429 19.8702C6.83542 20.1758 6.8965 20.4739 6.95397 20.75H6.50001C5.80966 20.75 5.25001 21.3097 5.25001 22C5.25001 22.6904 5.80966 23.25 6.50001 23.25H8.50001C8.87916 23.25 9.23782 23.0779 9.47507 22.7822C9.71231 22.4864 9.8025 22.099 9.72025 21.7289L9.72023 21.7288L9.72012 21.7283L9.71962 21.7261L9.71758 21.7168L9.70944 21.68L9.67817 21.5376C9.65115 21.4141 9.61247 21.2362 9.56602 21.0194C9.47303 20.5854 9.34928 19.9976 9.22574 19.3799C9.10187 18.7606 8.97982 18.1192 8.88926 17.5758C8.79244 16.9949 8.75001 16.629 8.75001 16.5L8.75005 16.503L8.75031 16.5008C8.75145 16.4899 8.75694 16.4374 8.78314 16.3309C8.81489 16.2019 8.86772 16.0305 8.94765 15.8115C9.10783 15.3728 9.35447 14.8038 9.69018 14.1018C9.79621 13.8802 9.9101 13.6473 10.0317 13.4035L10.0219 13.4537C9.70613 15.1121 10.0394 16.4691 11 17.75C11.6455 18.6106 12.8149 19.907 13.7839 20.9506L13.7977 20.9654C13.4668 21.1903 13.2495 21.5698 13.2495 22C13.2495 22.6904 13.8091 23.25 14.4995 23.25H16.4998C17.002 23.25 17.4554 22.9495 17.6511 22.487C17.8467 22.0245 17.7466 21.4898 17.3968 21.1295L17.3968 21.1294L17.3964 21.129L17.3948 21.1274L17.3881 21.1204L17.361 21.0925L17.2559 20.9836C17.1645 20.8887 17.0323 20.751 16.8697 20.5807C16.5444 20.2399 16.0985 19.7692 15.6159 19.2495C14.635 18.1931 13.5546 16.9894 13 16.25C12.4607 15.5309 12.2937 14.888 12.4778 13.9213C12.6612 12.9578 13.1911 11.7043 14.1708 9.87869Z" fill="#5F5F67"/>
</svg>
