<svg width="24" height="24" viewBox="0 0 24 24" fill="none" xmlns="http://www.w3.org/2000/svg">
<g clip-path="url(#clip0_54_3602)">
<path fill-rule="evenodd" clip-rule="evenodd" d="M19.4247 1.74626C18.6437 0.965216 17.3774 0.965217 16.5963 1.74627L16.2428 2.09986L21.8996 7.75672L22.2532 7.40312C23.0342 6.62207 23.0342 5.35574 22.2532 4.57469L19.4247 1.74626ZM11.2931 2.09975C12.0694 1.32338 13.3253 1.31873 14.1074 2.08581L21.9136 9.892C22.6807 10.6741 22.676 11.93 21.8997 12.7064C21.1186 13.4874 19.8523 13.4874 19.0712 12.7064L16.9499 10.585L16.9499 10.5851L13.4143 7.04957L13.4144 7.0495L11.2931 4.92818C10.512 4.14713 10.512 2.8808 11.2931 2.09975ZM12.3537 8.11023L8.11102 12.3529L11.6466 15.8884L15.8892 11.6458L12.3537 8.11023ZM2.10068 11.2921C2.87707 10.5157 4.13298 10.5111 4.91509 11.2783L12.7212 19.0843C13.4883 19.8664 13.4837 21.1223 12.7073 21.8987C11.9262 22.6798 10.6599 22.6798 9.87886 21.8987L8.81841 20.8383L8.81834 20.8384L3.16149 15.1815L3.16156 15.1814L2.10068 14.1206C1.31963 13.3395 1.31964 12.0732 2.10068 11.2921ZM2.10083 16.2422L1.74768 16.5953C0.966626 17.3764 0.966627 18.6427 1.74768 19.4237L4.5761 22.2522C5.35715 23.0332 6.62348 23.0332 7.40453 22.2522L7.75768 21.899L2.10083 16.2422Z" fill="#5F5F67"/>
</g>
<defs>
<clipPath id="clip0_54_3602">
<rect width="24" height="24" fill="white"/>
</clipPath>
</defs>
</svg>
