<svg width="69" height="26" viewBox="0 0 69 26" fill="none" xmlns="http://www.w3.org/2000/svg">
<g clip-path="url(#clip0_54_3358)">
<path fill-rule="evenodd" clip-rule="evenodd" d="M23.7682 4.64021C24.1218 4.21593 24.0645 3.58537 23.6402 3.2318C23.2159 2.87824 22.5853 2.93556 22.2318 3.35984L20.0316 6.00003H19.0233C19.0078 5.99966 18.9924 5.99966 18.977 6.00003H16C15.4477 6.00003 15 6.44774 15 7.00003C15 7.55231 15.4477 8.00003 16 8.00003H17.557L15.1006 14.5505L10.0154 12.0079C9.39122 11.6958 8.74836 11.5135 8.11108 11.4461L9.12045 9.0909C9.54465 8.1011 8.8186 7.00003 7.74173 7.00003H5.5C4.94772 7.00003 4.5 7.44774 4.5 8.00003C4.5 8.55231 4.94772 9.00003 5.5 9.00003H6.98346L6.08085 11.1061C6.00671 11.2791 5.98515 11.4614 6.00903 11.6352C3.77005 12.2866 2 14.3301 2 16.9617C2 20.0205 4.47967 22.5002 7.53851 22.5002H19.2188C20.7548 22.5002 22 21.255 22 19.719C22 18.6656 21.4048 17.7026 20.4626 17.2315L16.8944 15.4474C16.9099 15.4164 16.9239 15.3843 16.9363 15.3511L19.693 8.00003H20.2658C20.711 8.00003 21.1332 7.80229 21.4181 7.4603L23.7682 4.64021ZM6.25 17.0002C6.25 16.3098 6.80964 15.7502 7.5 15.7502C8.19036 15.7502 8.75 16.3098 8.75 17.0002C8.75 17.6905 8.19036 18.2502 7.5 18.2502C6.80964 18.2502 6.25 17.6905 6.25 17.0002ZM7.5 14.2502C5.98122 14.2502 4.75 15.4814 4.75 17.0002C4.75 18.519 5.98122 19.7502 7.5 19.7502C8.14844 19.7502 8.74446 19.5257 9.21463 19.1503C9.23201 19.168 9.25042 19.185 9.26986 19.2012L10.0199 19.8262C10.1546 19.9385 10.3245 20 10.5 20H12C12.4142 20 12.75 19.6642 12.75 19.25C12.75 18.8358 12.4142 18.5 12 18.5H10.7715L10.2301 18.0488C10.1834 18.0098 10.1332 17.9775 10.0809 17.9518C10.1903 17.6552 10.25 17.3347 10.25 17.0002C10.25 15.4814 9.01878 14.2502 7.5 14.2502Z" fill="#5F5F67"/>
</g>
<path d="M35.7222 8.42188C35.73 10.8047 38.4487 12.9219 40.8628 13.375L40.3003 14.4062C38.1987 13.9219 35.9956 12.4297 35.0972 10.3906C34.1909 12.4297 31.9956 13.9141 29.8941 14.4062L29.3316 13.375C31.7378 12.9141 34.4331 10.8125 34.4409 8.42188V7.35938H35.7222V8.42188ZM28.8003 18.375V17.3594H41.5191V18.375H28.8003ZM53.6328 6.375V20.2656H52.3984V6.375H53.6328ZM42.1328 15.7812C42.7344 15.7812 43.3828 15.7734 44.0547 15.7656V8.90625H42.4922V7.89062H50.4297V8.90625H48.8516V15.5859C49.6328 15.5312 50.4062 15.4609 51.1484 15.375L51.2266 16.2969C48.1953 16.7656 44.8438 16.8125 42.2734 16.8281L42.1328 15.7812ZM45.2578 15.7422C46.0391 15.7266 46.8438 15.6953 47.6484 15.6562V8.90625H45.2578V15.7422ZM66.9341 6.375V14.7188H65.7153V6.375H66.9341ZM56.3716 13.4688V7.29688H57.6059V12.4375C60.0591 12.4297 62.0356 12.2812 64.1997 11.8125L64.3716 12.8438C62.0981 13.3281 60.0513 13.4844 57.4966 13.4688H56.3716ZM57.6059 17.5312C57.6059 15.8047 59.4106 14.7891 62.3091 14.7969C65.1997 14.7891 66.9888 15.8047 66.9966 17.5312C66.9888 19.2344 65.1997 20.2344 62.3091 20.2344C59.4106 20.2344 57.6059 19.2344 57.6059 17.5312ZM58.8403 17.5312C58.8325 18.5938 60.1606 19.2422 62.3091 19.25C64.4497 19.2422 65.7622 18.5938 65.7778 17.5312C65.7622 16.4375 64.4497 15.8047 62.3091 15.8125C60.1606 15.8047 58.8325 16.4375 58.8403 17.5312Z" fill="#5F5F67"/>
<defs>
<clipPath id="clip0_54_3358">
<rect width="24" height="24" fill="white" transform="translate(0 1)"/>
</clipPath>
</defs>
</svg>
