<svg width="24" height="24" viewBox="0 0 24 24" fill="none" xmlns="http://www.w3.org/2000/svg">
<g clip-path="url(#clip0_54_3624)">
<path fill-rule="evenodd" clip-rule="evenodd" d="M23.7682 3.64021C24.1218 3.21593 24.0645 2.58537 23.6402 2.2318C23.2159 1.87824 22.5853 1.93556 22.2318 2.35984L20.0316 5.00003H19.0233C19.0078 4.99966 18.9924 4.99966 18.977 5.00003H16C15.4477 5.00003 15 5.44774 15 6.00003C15 6.55231 15.4477 7.00003 16 7.00003H17.557L15.1006 13.5505L10.0154 11.0079C9.39122 10.6958 8.74836 10.5135 8.11108 10.4461L9.12045 8.0909C9.54465 7.1011 8.8186 6.00003 7.74173 6.00003H5.5C4.94772 6.00003 4.5 6.44774 4.5 7.00003C4.5 7.55231 4.94772 8.00003 5.5 8.00003H6.98346L6.08085 10.1061C6.00671 10.2791 5.98515 10.4614 6.00903 10.6352C3.77005 11.2866 2 13.3301 2 15.9617C2 19.0205 4.47967 21.5002 7.53851 21.5002H19.2188C20.7548 21.5002 22 20.255 22 18.719C22 17.6656 21.4048 16.7026 20.4626 16.2315L16.8944 14.4474C16.9099 14.4164 16.9239 14.3843 16.9363 14.3511L19.693 7.00003H20.2658C20.711 7.00003 21.1332 6.80229 21.4181 6.4603L23.7682 3.64021ZM6.25 16.0002C6.25 15.3098 6.80964 14.7502 7.5 14.7502C8.19036 14.7502 8.75 15.3098 8.75 16.0002C8.75 16.6905 8.19036 17.2502 7.5 17.2502C6.80964 17.2502 6.25 16.6905 6.25 16.0002ZM7.5 13.2502C5.98122 13.2502 4.75 14.4814 4.75 16.0002C4.75 17.519 5.98122 18.7502 7.5 18.7502C8.14844 18.7502 8.74446 18.5257 9.21463 18.1503C9.23201 18.168 9.25042 18.185 9.26986 18.2012L10.0199 18.8262C10.1546 18.9385 10.3245 19 10.5 19H12C12.4142 19 12.75 18.6642 12.75 18.25C12.75 17.8358 12.4142 17.5 12 17.5H10.7715L10.2301 17.0488C10.1834 17.0098 10.1332 16.9775 10.0809 16.9518C10.1903 16.6552 10.25 16.3347 10.25 16.0002C10.25 14.4814 9.01878 13.2502 7.5 13.2502Z" fill="#5F5F67"/>
</g>
<defs>
<clipPath id="clip0_54_3624">
<rect width="24" height="24" fill="white"/>
</clipPath>
</defs>
</svg>
