<svg width="24" height="24" viewBox="0 0 24 24" fill="none" xmlns="http://www.w3.org/2000/svg">
<path fill-rule="evenodd" clip-rule="evenodd" d="M7.71355 13.2567L8.85969 12.1016L10.981 14.2229L9.84313 15.3697C9.78807 15.4252 9.72975 15.4755 9.66878 15.5206C10.662 17.4078 10.365 19.7967 8.77774 21.3839C8.53558 21.6261 8.27476 21.8382 7.99991 22.0203L5.59538 19.6158L5.59527 19.6159L3.47395 17.4946L3.47406 17.4945L1.07029 15.0907C1.25239 14.8159 1.46451 14.555 1.70667 14.3129C3.29424 12.7253 5.68378 12.4285 7.57122 13.4225C7.61398 13.3647 7.66142 13.3092 7.71355 13.2567ZM21.5646 3.55651L15.2071 9.96374L13.0858 7.8424L19.435 1.44349C20.0185 0.855418 20.9682 0.851714 21.5563 1.43521C22.1443 2.01871 22.148 2.96845 21.5646 3.55651ZM22.3852 14.3129C20.7976 12.7253 18.408 12.4285 16.5205 13.4225C16.4767 13.3633 16.428 13.3067 16.3744 13.253L4.56068 1.43934C3.97489 0.853553 3.02515 0.853553 2.43936 1.43934C1.85357 2.02513 1.85357 2.97487 2.43936 3.56066L14.2531 15.3744C14.3068 15.4281 14.3636 15.4769 14.4229 15.5208C13.4299 17.408 13.7269 19.7968 15.3141 21.3839C15.5563 21.6261 15.8171 21.8382 16.0919 22.0203L18.4965 19.6158L18.4966 19.6159L20.6179 17.4946L20.6178 17.4945L23.0215 15.0907C22.8394 14.8159 22.6273 14.555 22.3852 14.3129ZM23.0316 19.9084L21.6785 18.5553L19.5572 20.6766L20.9103 22.0297C21.4961 22.6155 22.4459 22.6155 23.0316 22.0297C23.6174 21.4439 23.6174 20.4941 23.0316 19.9084ZM1.06019 19.9084L2.41329 18.5553L4.53461 20.6766L3.18151 22.0297C2.59572 22.6155 1.64598 22.6155 1.06019 22.0297C0.474403 21.4439 0.474403 20.4941 1.06019 19.9084Z" fill="#5F5F67"/>
</svg>
