<svg width="307" height="54" viewBox="0 0 307 54" fill="none" xmlns="http://www.w3.org/2000/svg">
<path d="M20.6266 13.6728C20.6252 13.5965 20.5418 13.5465 20.4759 13.5849C15.0972 16.7225 15.3065 24.8358 15.3664 26.013C15.37 26.0839 15.3031 26.1306 15.238 26.1022C14.7082 25.8703 12.8189 24.8251 12.7518 21.6882C12.7502 21.6119 12.6679 21.5617 12.6018 21.6001C9.55159 23.3736 7.5 26.6919 7.5 30.375C7.5 35.9669 12.201 40.5 18 40.5C23.799 40.5 28.5 35.9669 28.5 30.375C28.4999 22.2169 20.7556 20.4895 20.6266 13.6728Z" fill="#FF5D5E" stroke="#FF5D5E" stroke-width="1.5"/>
<path d="M19.4106 26.0928C19.4098 26.0518 19.3651 26.0249 19.3297 26.0456C16.4411 27.7306 16.5535 32.0878 16.5857 32.7199C16.5876 32.758 16.5517 32.7831 16.5168 32.7678C16.2322 32.6433 15.2176 32.082 15.1816 30.3974C15.1807 30.3564 15.1365 30.3295 15.101 30.3501C13.4629 31.3025 12.3611 33.0845 12.3611 35.0625C12.3611 38.0655 14.8858 40.5 18 40.5C21.1143 40.5 23.6389 38.0655 23.6389 35.0625C23.6389 30.6813 19.4799 29.7536 19.4106 26.0928Z" fill="#FFAA50" stroke="#FFAA50" stroke-width="0.805556"/>
<path d="M49.332 8.37109C51.9883 8.37109 53.9023 10.793 53.9219 14.6016C53.9023 18.4395 51.9883 20.8516 49.332 20.8516C46.6465 20.8516 44.7324 18.4395 44.7422 14.6016C44.7324 10.793 46.6465 8.37109 49.332 8.37109ZM46.832 14.6016C46.8223 17.3164 47.8477 18.8887 49.332 18.8984C50.8262 18.8887 51.8223 17.3164 51.832 14.6016C51.8223 11.9062 50.8262 10.3242 49.332 10.3242C47.8477 10.3242 46.8223 11.9062 46.832 14.6016ZM56.2461 24.7383V7.08203H58.4141V13.8594H61.1289V15.6953H58.4141V24.7383H56.2461ZM75.9586 7.08203V24.7578H73.7711V7.08203H75.9586ZM61.8375 14.6016C61.8277 10.793 63.7711 8.37109 66.4469 8.37109C69.0934 8.37109 71.0465 10.793 71.0562 14.6016C71.0465 18.4395 69.0934 20.8516 66.4469 20.8516C63.7711 20.8516 61.8277 18.4395 61.8375 14.6016ZM63.9273 14.6016C63.9273 17.3164 64.9527 18.8887 66.4469 18.8984C67.9312 18.8887 68.9469 17.3164 68.9469 14.6016C68.9469 11.9062 67.9312 10.3242 66.4469 10.3242C64.9527 10.3242 63.9273 11.9062 63.9273 14.6016ZM94.0695 14.1523V15.8711H77.9562V14.1523H94.0695ZM79.8508 18.7227V17.082H92.0383V21.5156H81.9992V22.8633H92.5266V24.5625H79.8703V19.9531H89.9094V18.7227H79.8508ZM80.007 13.0195V7.53125H91.9992V9.26953H82.175V11.3008H92.1555V13.0195H80.007ZM109.329 7.08203V24.7578H107.141V7.08203H109.329ZM95.2078 14.6016C95.198 10.793 97.1414 8.37109 99.8172 8.37109C102.464 8.37109 104.417 10.793 104.427 14.6016C104.417 18.4395 102.464 20.8516 99.8172 20.8516C97.1414 20.8516 95.198 18.4395 95.2078 14.6016ZM97.2977 14.6016C97.2977 17.3164 98.323 18.8887 99.8172 18.8984C101.302 18.8887 102.317 17.3164 102.317 14.6016C102.317 11.9062 101.302 10.3242 99.8172 10.3242C98.323 10.3242 97.2977 11.9062 97.2977 14.6016ZM129.398 7.08203V10.8906H131.859V12.6875H129.398V15.9688H127.23V7.08203H129.398ZM116.078 15.5V8.21484H124.438V15.5H116.078ZM117.152 24.25V17.4727H119.281V22.4824C120.287 22.4238 121.332 22.2773 122.348 21.9453L122.66 23.6445C121.098 24.1914 119.594 24.2598 118.09 24.25H117.152ZM118.207 13.8008H122.309V9.91406H118.207V13.8008ZM122.055 19.2305V17.668H125.453V16.2812H127.582V17.668H130.941V19.2305H122.055ZM123.129 22.2383C123.109 20.6953 124.486 19.7578 126.488 19.7578C128.471 19.7578 129.857 20.6953 129.867 22.2383C129.857 23.752 128.471 24.6992 126.488 24.6992C124.477 24.6992 123.109 23.752 123.129 22.2383ZM125.062 22.2383C125.053 22.873 125.658 23.2344 126.488 23.2344C127.318 23.2344 127.914 22.873 127.914 22.2383C127.914 21.5938 127.318 21.2422 126.488 21.2422C125.658 21.2422 125.053 21.5938 125.062 22.2383ZM146.845 7.08203V24.7578H144.658V7.08203H146.845ZM132.724 14.6016C132.714 10.793 134.658 8.37109 137.334 8.37109C139.98 8.37109 141.933 10.793 141.943 14.6016C141.933 18.4395 139.98 20.8516 137.334 20.8516C134.658 20.8516 132.714 18.4395 132.724 14.6016ZM134.814 14.6016C134.814 17.3164 135.839 18.8887 137.334 18.8984C138.818 18.8887 139.834 17.3164 139.834 14.6016C139.834 11.9062 138.818 10.3242 137.334 10.3242C135.839 10.3242 134.814 11.9062 134.814 14.6016ZM162.188 8.54688C162.179 10.7637 164.669 13.0195 168.438 13.5078L167.579 15.2656C164.581 14.8164 162.198 13.3418 161.046 11.3496C159.893 13.3418 157.52 14.8164 154.552 15.2656L153.692 13.5078C157.423 13.0195 159.903 10.7832 159.903 8.54688V7.64844H162.188V8.54688ZM152.989 18.5859V16.7891H169.083V18.5859H162.071V24.7383H159.923V18.5859H152.989ZM183.6 7.08203V11.3789H186.061V13.1562H183.6V17.4336H181.432V7.08203H183.6ZM169.616 15.9492C173.61 14.8555 175.993 12.6973 176.364 10.0508H170.416V8.29297H178.717C178.727 12.9316 175.7 16.2324 170.475 17.707L169.616 15.9492ZM171.998 21.1836C171.979 19.0059 174.342 17.6484 177.897 17.6484C181.481 17.6484 183.795 19.0059 183.795 21.1836C183.795 23.3809 181.481 24.7285 177.897 24.7188C174.342 24.7285 171.979 23.3809 171.998 21.1836ZM174.147 21.1836C174.137 22.3359 175.563 23.0195 177.897 23.0195C180.221 23.0195 181.657 22.3359 181.666 21.1836C181.657 20.0215 180.221 19.3477 177.897 19.3477C175.563 19.3477 174.137 20.0215 174.147 21.1836ZM200.188 7.08203V14.1133H202.902V15.9102H200.188V24.7383H198.039V7.08203H200.188ZM186.262 11.5352V9.79688H190.441V7.33594H192.609V9.79688H196.672V11.5352H186.262ZM187.082 16.8477C187.062 14.4062 188.957 12.6777 191.535 12.6875C194.074 12.6777 195.959 14.4062 195.969 16.8477C195.959 19.2793 194.074 20.9883 191.535 20.9883C188.957 20.9883 187.062 19.2793 187.082 16.8477ZM189.152 16.8477C189.143 18.2832 190.148 19.2012 191.535 19.1914C192.893 19.2012 193.879 18.2832 193.898 16.8477C193.879 15.4121 192.893 14.4648 191.535 14.4648C190.148 14.4648 189.143 15.4121 189.152 16.8477ZM217.341 12.082V13.8008H205.115V7.72656H207.263V12.082H217.341ZM203.025 17.5703V15.8516H219.158V17.5703H203.025ZM204.959 24.3281V19.1328H207.127V22.5703H217.459V24.3281H204.959ZM232.977 13.3906V15.6367H239.97V17.3945H223.876V15.6367H230.829V13.3906H232.977ZM224.637 12.6484C227.899 12.3262 230.018 11.0469 230.38 9.60156H225.341V7.86328H238.524V9.60156H233.436C233.798 11.0371 235.917 12.3262 239.208 12.6484L238.427 14.3477C235.223 14.0156 232.86 12.7656 231.903 10.9883C230.946 12.7656 228.602 14.0156 225.399 14.3477L224.637 12.6484ZM225.751 21.6133C225.751 19.6309 228.046 18.5273 231.903 18.5273C235.731 18.5273 238.007 19.6309 238.016 21.6133C238.007 23.6152 235.731 24.7188 231.903 24.7188C228.046 24.7188 225.751 23.6152 225.751 21.6133ZM227.958 21.6133C227.948 22.5801 229.305 23.0781 231.903 23.0781C234.452 23.0781 235.829 22.5801 235.848 21.6133C235.829 20.6758 234.452 20.1973 231.903 20.1875C229.305 20.1973 227.948 20.6758 227.958 21.6133ZM254.604 7.80469V13.9375H249.682V15.793H256.655V17.5508H240.561V15.793H247.495V13.9375H242.592V7.80469H254.604ZM242.338 20.7539V19.0352H254.682V24.7383H252.514V20.7539H242.338ZM244.702 12.2188H252.455V9.50391H244.702V12.2188ZM261.49 10.9883V8.85938H272.759V10.9883H268.404V23H265.865V10.9883H261.49ZM277.12 23.2148C274.025 23.2148 272.042 21.0176 272.042 17.7461C272.042 14.4453 274.025 12.2578 277.12 12.2578C280.226 12.2578 282.208 14.4453 282.198 17.7461C282.208 21.0176 280.226 23.2148 277.12 23.2148ZM274.562 17.7266C274.562 19.6699 275.411 21.2227 277.14 21.2227C278.839 21.2227 279.689 19.6699 279.679 17.7266C279.689 15.7832 278.839 14.2207 277.14 14.2305C275.411 14.2207 274.562 15.7832 274.562 17.7266ZM283.532 26.9844V12.3945H285.973V14.1328H286.13C286.511 13.3809 287.292 12.2578 289.177 12.2578C291.618 12.2578 293.542 14.1719 293.552 17.707C293.542 21.1934 291.677 23.1855 289.177 23.1953C287.35 23.1855 286.52 22.1016 286.13 21.3203H286.032V26.9844H283.532ZM285.973 17.6875C285.983 19.7578 286.882 21.1445 288.493 21.1445C290.143 21.1445 291.012 19.6895 291.012 17.6875C291.012 15.7148 290.163 14.2988 288.493 14.2891C286.862 14.2988 285.983 15.627 285.973 17.6875ZM300.022 23.1953C297.004 23.1953 294.846 21.5547 294.788 19.1719H297.346C297.414 20.3047 298.547 21.0566 300.022 21.0469C301.575 21.0566 302.698 20.1973 302.698 18.9375C302.698 17.668 301.604 16.7598 299.768 16.75H298.498V14.7969H299.768C301.272 14.7969 302.317 13.957 302.307 12.7266C302.317 11.5352 301.418 10.7344 300.041 10.7344C298.713 10.7344 297.571 11.4766 297.522 12.668H295.08C295.139 10.2949 297.297 8.66406 300.061 8.66406C302.932 8.66406 304.788 10.4219 304.768 12.5898C304.788 14.1719 303.733 15.3145 302.19 15.6367V15.7539C304.182 16.0176 305.315 17.2969 305.295 19.0742C305.315 21.4668 303.079 23.1953 300.022 23.1953Z" fill="#1A1A25"/>
<path d="M44.9297 48L44.916 47.0977L48.293 43.543C49.4688 42.2988 50.0293 41.6289 50.0293 40.7129C50.0293 39.7012 49.168 39.0312 48.0605 39.0312C46.8848 39.0312 46.1328 39.7832 46.1328 40.8906H44.9707C44.957 39.1406 46.3105 37.9648 48.1016 37.9648C49.8926 37.9648 51.1777 39.168 51.1777 40.7129C51.1777 41.8203 50.6582 42.6816 48.9082 44.4863L46.6387 46.8242V46.9062H51.3555V48H44.9297ZM55.9667 48.1367C53.7655 48.1367 52.5077 46.291 52.5077 43.0508C52.5077 39.8379 53.7929 37.9648 55.9667 37.9648C58.1405 37.9648 59.4257 39.8379 59.4257 43.0508C59.4257 46.291 58.1542 48.1367 55.9667 48.1367ZM55.9667 47.043C57.3886 47.043 58.2226 45.6074 58.2226 43.0508C58.2226 40.4941 57.3886 39.0312 55.9667 39.0312C54.5448 39.0312 53.6972 40.4941 53.6972 43.0508C53.6972 45.6074 54.5312 47.043 55.9667 47.043ZM60.6463 48L60.6327 47.0977L64.0096 43.543C65.1854 42.2988 65.7459 41.6289 65.7459 40.7129C65.7459 39.7012 64.8846 39.0312 63.7772 39.0312C62.6014 39.0312 61.8495 39.7832 61.8495 40.8906H60.6873C60.6737 39.1406 62.0272 37.9648 63.8182 37.9648C65.6092 37.9648 66.8944 39.168 66.8944 40.7129C66.8944 41.8203 66.3748 42.6816 64.6248 44.4863L62.3553 46.8242V46.9062H67.0721V48H60.6463ZM67.9783 45.9766V44.9648L72.4353 38.1016H73.9529V44.8965H75.3337V45.9766H73.9529V48H72.7771V45.9766H67.9783ZM69.3045 44.8965H72.7771V39.6602H72.6541L69.3045 44.8145V44.8965ZM76.9372 48.082C76.4587 48.082 76.0485 47.6855 76.0622 47.1934C76.0485 46.7148 76.4587 46.3184 76.9372 46.3184C77.4157 46.3184 77.8122 46.7148 77.8122 47.1934C77.8122 47.6855 77.4157 48.082 76.9372 48.082ZM81.5348 38.1016V48H80.2906V39.3867H80.2359L77.8297 40.9863V39.7422L80.2906 38.1016H81.5348ZM87.2534 38.1016V48H86.0093V39.3867H85.9546L83.5484 40.9863V39.7422L86.0093 38.1016H87.2534ZM89.7319 48.082C89.2534 48.082 88.8432 47.6855 88.8569 47.1934C88.8432 46.7148 89.2534 46.3184 89.7319 46.3184C90.2104 46.3184 90.6069 46.7148 90.6069 47.1934C90.6069 47.6855 90.2104 48.082 89.7319 48.082ZM94.3295 38.1016V48H93.0853V39.3867H93.0306L90.6244 40.9863V39.7422L93.0853 38.1016H94.3295ZM99.7747 48.1367C97.9837 48.1367 96.6302 47.0293 96.5618 45.5117H97.7513C97.847 46.4004 98.7083 47.0566 99.7747 47.0566C101.06 47.0566 101.99 46.1133 101.99 44.8691C101.99 43.584 101.019 42.6406 99.6927 42.627C98.8587 42.6133 98.2161 42.873 97.847 43.5156H96.6575L97.3548 38.1016H102.714V39.1953H98.3802L98.011 42.0938H98.1067C98.5442 41.752 99.2141 41.5195 99.9114 41.5195C101.798 41.5195 103.193 42.9141 103.193 44.8418C103.193 46.7559 101.743 48.1367 99.7747 48.1367ZM117.187 36.9531V49.1074H116.107V36.9531H117.187ZM113.591 38.2793C113.577 41.7793 111.95 44.8691 107.876 46.8242L107.288 45.9492C110.576 44.3906 112.251 42.0596 112.497 39.1543H107.849V38.2793H113.591ZM125.052 38.4707C125.038 39.9609 127.089 41.1777 129.235 41.4785L128.812 42.3262C126.85 42.0459 125.018 41.0615 124.355 39.6328C123.698 41.0615 121.873 42.0459 119.897 42.3262L119.501 41.4785C121.647 41.1777 123.657 39.9609 123.657 38.4707V38.4434H119.829V37.5684H128.907V38.4434H125.052V38.4707ZM129.933 43.2148V44.1035H124.983V46.5918H123.917V44.1035H118.804V43.2148H129.933ZM128.689 47.9453V48.8477H120.226V45.375H121.306V47.9453H128.689Z" fill="#76767C"/>
</svg>
