<svg width="36" height="36" viewBox="0 0 36 36" fill="none" xmlns="http://www.w3.org/2000/svg">
<g id="Iconex/Filled/Fire">
<g id="Fire">
<path id="Vector" d="M20.6266 4.67278C20.6252 4.59655 20.5418 4.54645 20.4759 4.58487C15.0972 7.72246 15.3065 15.8358 15.3664 17.013C15.37 17.0839 15.3031 17.1306 15.238 17.1022C14.7082 16.8703 12.8189 15.8251 12.7518 12.6882C12.7502 12.6119 12.6679 12.5617 12.6018 12.6001C9.55159 14.3736 7.5 17.6919 7.5 21.375C7.5 26.9669 12.201 31.5 18 31.5C23.799 31.5 28.5 26.9669 28.5 21.375C28.4999 13.2169 20.7556 11.4895 20.6266 4.67278Z" fill="#FF5D5E" stroke="#FF5D5E" stroke-width="1.5"/>
</g>
<g id="Fire_2">
<path id="Vector_2" d="M19.4106 17.0928C19.4098 17.0518 19.3651 17.0249 19.3297 17.0456C16.4411 18.7306 16.5535 23.0878 16.5857 23.7199C16.5876 23.758 16.5517 23.7831 16.5168 23.7678C16.2322 23.6433 15.2176 23.082 15.1816 21.3974C15.1807 21.3564 15.1365 21.3295 15.101 21.3501C13.4629 22.3025 12.3611 24.0845 12.3611 26.0625C12.3611 29.0655 14.8858 31.5 18 31.5C21.1143 31.5 23.6389 29.0655 23.6389 26.0625C23.6389 21.6813 19.4799 20.7536 19.4106 17.0928Z" fill="#FFAA50" stroke="#FFAA50" stroke-width="0.805556"/>
</g>
</g>
</svg>
