<svg width="24" height="24" viewBox="0 0 24 24" fill="none" xmlns="http://www.w3.org/2000/svg">
<path fill-rule="evenodd" clip-rule="evenodd" d="M12.25 0.75C10.8693 0.750029 9.75003 1.86931 9.75 3.25C9.74998 4.63073 10.8693 5.75003 12.25 5.75C13.6307 5.74997 14.75 4.63069 14.75 3.25C14.75 1.86927 13.6307 0.749971 12.25 0.75ZM4.41174 3.89705C5.02086 3.57216 5.77804 3.80258 6.10293 4.41171C6.59595 5.33606 7.03656 6.09739 7.46074 6.69751C7.88925 7.30377 8.25449 7.67758 8.57219 7.88815C8.85889 8.07818 9.1046 8.1362 9.37833 8.10777C9.67873 8.07658 10.1142 7.92889 10.7281 7.51354C11.1476 7.1603 11.6537 7.06669 12.0008 7.03985C12.4124 7.00802 12.8552 7.05164 13.2798 7.12467C14.1357 7.27188 15.145 7.58003 16.1437 7.94319C18.1474 8.67178 20.3232 9.70149 21.5611 10.4162C22.159 10.7614 22.3638 11.5259 22.0187 12.1237C21.6735 12.7216 20.909 12.9264 20.3111 12.5813C19.2107 11.9459 17.1688 10.9761 15.2894 10.2927C15.1458 10.2405 15.0045 10.1904 14.8657 10.1427C14.9068 10.2596 14.9476 10.377 14.9879 10.4953C15.2179 11.1703 15.4852 12.0133 15.4347 12.7706C15.4064 13.195 15.2761 13.671 14.9286 14.0845C14.6136 14.4593 14.2046 14.6821 13.785 14.8091C14.5087 16.8609 15.4895 19.1839 16.6181 21.4411C16.8118 21.8286 16.7911 22.2888 16.5634 22.6573C16.3356 23.0258 15.9333 23.2501 15.5001 23.2501H13.5C12.8097 23.2501 12.25 22.6905 12.25 22.0001C12.25 21.3098 12.8097 20.7501 13.5 20.7501H13.5133C12.5747 18.714 11.7667 16.682 11.1634 14.8713C10.8803 14.8335 10.5845 14.7858 10.2764 14.7298C8.96154 14.4907 8.15978 14.3958 7.68118 14.4141C7.68447 14.4352 7.68822 14.4577 7.69249 14.4817C7.73813 14.7375 7.82701 15.0728 7.96618 15.5166C8.12292 16.0165 8.31514 16.5697 8.54162 17.2215L8.54164 17.2215L8.54165 17.2216L8.5417 17.2217C8.73237 17.7705 8.94733 18.3891 9.18585 19.1047C9.31291 19.4859 9.24899 19.9049 9.01405 20.2309C8.77911 20.5568 8.4018 20.75 8 20.75H6C5.30965 20.75 4.75 20.1903 4.75 19.5C4.75 18.8096 5.30965 18.25 6 18.25H6.2521L6.20099 18.1026C5.95834 17.4029 5.74207 16.7792 5.5807 16.2646C5.4308 15.7865 5.30484 15.3327 5.23134 14.9206C5.16018 14.5217 5.11887 14.0628 5.21525 13.6131C5.32278 13.1113 5.59771 12.649 6.07667 12.3333C6.50548 12.0506 6.99317 11.9558 7.41769 11.9251C8.17814 11.8701 9.18211 11.9986 10.3876 12.2101C10.2408 11.6014 10.1302 11.0348 10.0636 10.5264C9.92177 10.5567 9.77944 10.5796 9.63652 10.5944C8.7244 10.6891 7.90651 10.4462 7.19101 9.97198C6.50651 9.51829 5.93095 8.86449 5.41922 8.14049C4.90314 7.41035 4.40406 6.53876 3.89708 5.58824C3.57219 4.97911 3.80261 4.22194 4.41174 3.89705Z" fill="#5F5F67"/>
</svg>
