<svg width="24" height="24" viewBox="0 0 24 24" fill="none" xmlns="http://www.w3.org/2000/svg">
<path fill-rule="evenodd" clip-rule="evenodd" d="M4.49954 14.5C7.65611 14.1054 10.8134 15.5794 12.004 16.2183C12.2708 16.3615 12.6106 16.2545 12.7352 15.9786L19.0789 1.93246C19.3352 1.36483 19.9003 1 20.5232 1C21.6797 1 22.4467 2.19878 21.962 3.24886L14.4656 19.4906C14.1565 20.1603 13.7621 20.7949 13.1728 21.2385C11.9317 22.1728 9.31833 23.5414 5.49953 22.5C-0.000938892 21 0.500008 15 4.49954 14.5ZM8.12484 17.352C8.48358 17.1449 8.94226 17.2679 9.14933 17.6266L9.95966 19.0305C10.1667 19.3893 10.0438 19.848 9.68503 20.055C9.32628 20.2621 8.8676 20.1391 8.66054 19.7804L7.8502 18.3765C7.64314 18.0177 7.7661 17.559 8.12484 17.352ZM4.61482 16.929C4.97357 16.722 5.43225 16.8449 5.63931 17.2037L6.44965 18.6076C6.65671 18.9663 6.53375 19.425 6.17501 19.6321C5.81627 19.8391 5.35759 19.7162 5.15052 19.3574L4.34019 17.9535C4.13312 17.5948 4.25608 17.1361 4.61482 16.929ZM20 21.5C21.3807 21.5 22.5 20.3807 22.5 19C22.5 17.6193 21.3807 16.5 20 16.5C18.6193 16.5 17.5 17.6193 17.5 19C17.5 20.3807 18.6193 21.5 20 21.5Z" fill="#5F5F67"/>
</svg>
