<svg width="22" height="20" viewBox="0 0 22 20" fill="none" xmlns="http://www.w3.org/2000/svg">
<path fill-rule="evenodd" clip-rule="evenodd" d="M4.28 15.4926C3.49258 14.7354 2.82047 13.8596 2.29254 12.8942C1.90248 12.181 1.90249 11.3188 2.29256 10.6055C4.11847 7.26683 7.66882 4.99997 11.75 4.99997C12.6773 4.99997 13.5771 5.117 14.4356 5.33703L11.7726 8.00004C11.7651 7.99999 11.7575 7.99997 11.75 7.99997C9.67893 7.99997 8 9.6789 8 11.75C8 11.7575 8.00002 11.765 8.00007 11.7726L4.28 15.4926ZM5.43546 16.4585C7.20927 17.7425 9.39097 18.5 11.75 18.5C15.8312 18.5 19.3815 16.2331 21.2074 12.8944C21.5975 12.1812 21.5975 11.3189 21.2075 10.6057C20.0598 8.50708 18.2308 6.83194 16.0169 5.87704L13.4747 8.41925C14.6779 9.04358 15.5 10.3008 15.5 11.75C15.5 13.821 13.8211 15.5 11.75 15.5C10.3008 15.5 9.04361 14.6779 8.41928 13.4747L5.43546 16.4585ZM9.57307 12.3209C9.67624 12.7154 9.8838 13.0676 10.1645 13.3464L11.75 11.75L13.1132 9.95977C12.8805 9.78234 12.6122 9.64923 12.3209 9.57304L9.57307 12.3209Z" fill="#5F5F67"/>
<path d="M15.8333 3.33331L3.33333 15.8333" stroke="#5F5F67" stroke-width="1.5" stroke-linecap="round" stroke-linejoin="round"/>
</svg>
