<svg width="24" height="24" viewBox="0 0 24 24" fill="none" xmlns="http://www.w3.org/2000/svg">
<path fill-rule="evenodd" clip-rule="evenodd" d="M8.49999 3.25C8.50002 1.86931 9.6193 0.750029 11 0.75C12.3807 0.749971 13.5 1.86927 13.5 3.25C13.5 4.63069 12.3807 5.74997 11 5.75C9.61926 5.75003 8.49996 4.63073 8.49999 3.25ZM13.7709 9.02412C13.7889 9.4525 13.8102 9.87687 13.8345 10.2961C14.8047 10.0862 15.7277 9.91445 16.5799 9.78346C15.8328 9.37911 14.906 9.06483 13.7709 9.02412ZM20.2505 9.48343C19.0946 8.33663 16.1961 5.67597 11.2287 6.78016C6.20695 7.89646 3.96379 11.2773 2.88196 13.441C2.78758 13.6297 2.74544 13.831 2.75006 14.0282C2.37093 14.2392 2.03472 14.4513 1.75464 14.6622C1.4838 14.8662 1.20218 15.1155 0.992776 15.4128C0.792558 15.6971 0.528173 16.2191 0.697434 16.8508C0.866695 17.4824 1.35665 17.8023 1.67217 17.9484C2.00216 18.1011 2.37073 18.1762 2.70725 18.2175C3.39282 18.3014 4.26934 18.2804 5.24068 18.1901C6.14832 18.1057 7.19165 17.9555 8.32598 17.7447C8.01556 18.5876 7.62949 19.4825 7.15119 20.4237L5.69682 20.7873C5.02708 20.9548 4.61988 21.6334 4.78731 22.3032C4.95475 22.9729 5.63342 23.3801 6.30316 23.2127L8.30316 22.7127C8.64604 22.627 8.93661 22.4001 9.10293 22.0882C10.0575 20.2985 10.7161 18.6368 11.1628 17.1344C11.4215 17.0717 11.6826 17.0065 11.9457 16.939C11.9991 17.3596 12.0528 17.761 12.1057 18.1411C12.2797 19.3909 12.446 20.4125 12.5691 21.1235C12.6307 21.479 12.6815 21.7571 12.7172 21.9475C12.735 22.0426 12.749 22.1159 12.7587 22.1659L12.77 22.2234L12.773 22.2388L12.7741 22.2444C12.7741 22.2444 12.7743 22.2451 14 22L12.7741 22.2444C12.891 22.8287 13.4041 23.25 14 23.25H16C16.6903 23.25 17.25 22.6904 17.25 22C17.25 21.3096 16.6903 20.75 16 20.75H15.0417C15.0386 20.7325 15.0355 20.7148 15.0324 20.6969C14.9134 20.0094 14.7515 19.0153 14.5818 17.7964C14.5151 17.3172 14.4472 16.8037 14.3803 16.2608C16.4316 15.6429 18.2537 14.9708 19.6488 14.3295C20.5352 13.922 21.3048 13.5019 21.8565 13.0864C22.1274 12.8825 22.409 12.6331 22.6184 12.3358C22.8186 12.0516 23.083 11.5296 22.9137 10.8979C22.7445 10.2662 22.2545 9.94637 21.939 9.80031C21.609 9.64755 21.2404 9.57243 20.9039 9.53122C20.7019 9.50648 20.4833 9.49085 20.2505 9.48343ZM9.52456 11.4002C9.51796 10.8481 9.47756 10.3991 9.43283 10.0636C9.43182 10.056 9.4308 10.0485 9.42978 10.041C8.15281 10.6805 7.20956 11.5247 6.49933 12.3904C7.42988 12.0525 8.44753 11.7185 9.52456 11.4002Z" fill="#5F5F67"/>
</svg>
