<svg width="24" height="24" viewBox="0 0 24 24" fill="none" xmlns="http://www.w3.org/2000/svg">
<path fill-rule="evenodd" clip-rule="evenodd" d="M14.2114 4.09371C14.5619 4.07303 14.9215 4.09351 15.285 4.1596C17.4048 4.54502 18.9651 6.37819 19.0003 8.51648C19.0005 8.52546 19.0007 8.53441 19.0011 8.54333C19.0004 8.55902 19 8.5748 19 8.59067V9.50003H21V8.59067C21 8.57617 20.9997 8.56175 20.9991 8.54741C21.0001 8.52629 21.0004 8.505 21 8.48357C20.949 5.38361 18.6939 2.7466 15.6428 2.19186C14.3623 1.95904 13.1083 2.11957 12 2.57969C10.8917 2.11959 9.63771 1.95906 8.35718 2.19189C5.27092 2.75303 3 5.44482 3 8.59067V9.50003H5V8.59067C5 6.42036 6.57082 4.54947 8.71496 4.15963C9.07847 4.09353 9.43807 4.07305 9.78859 4.09373C8.68968 5.24032 8 6.79683 8 8.54149C8 8.5415 8 8.54151 8 8.54152V11.0005C8 13.2096 9.79086 15.0005 12 15.0005C14.2091 15.0005 16 13.2096 16 11.0005V8.54152C16 6.79683 15.3103 5.2403 14.2114 4.09371ZM12 4.83564C10.8017 5.6304 10 6.98057 10 8.54149C10 8.5415 10 8.54151 10 8.54152V11.0005C10 12.1051 10.8954 13.0005 12 13.0005C13.1046 13.0005 14 12.1051 14 11.0005V8.54152C14 6.98058 13.1983 5.6304 12 4.83564ZM2.64459 11C1.92074 11 1.47365 11.7897 1.84606 12.4104C2.26993 13.1168 2.44764 13.9439 2.35138 14.7621L1.76264 19.7663C1.62276 20.9553 2.55175 22 3.74894 22H4.25076C5.44795 22 6.37695 20.9553 6.23706 19.7663L5.64833 14.7621C5.55207 13.9439 5.72977 13.1168 6.15364 12.4104C6.52605 11.7897 6.07896 11 5.35512 11H2.64459ZM18.6446 11C17.9207 11 17.4736 11.7897 17.8461 12.4104C18.2699 13.1168 18.4476 13.9439 18.3514 14.7621L17.7626 19.7663C17.6228 20.9553 18.5518 22 19.7489 22H20.2508C21.448 22 22.3769 20.9553 22.2371 19.7663L21.6483 14.7621C21.5521 13.9439 21.7298 13.1168 22.1536 12.4104C22.5261 11.7897 22.079 11 21.3551 11H18.6446Z" fill="#484851"/>
</svg>
