<svg width="25" height="24" viewBox="0 0 25 24" fill="none" xmlns="http://www.w3.org/2000/svg">
<path fill-rule="evenodd" clip-rule="evenodd" d="M1.75 12C1.75 6.06294 6.56294 1.25 12.5 1.25C18.4371 1.25 23.25 6.06294 23.25 12C23.25 17.9371 18.4371 22.75 12.5 22.75C10.613 22.75 8.83751 22.2632 7.29451 21.4077C7.2001 21.3554 7.10823 21.3531 7.04274 21.3762L4.52015 22.2676C2.97455 22.8138 1.48573 21.3249 2.03188 19.7793L2.96016 17.1523C2.98243 17.0893 2.9814 17.0013 2.93404 16.9092C2.17697 15.4367 1.75 13.7671 1.75 12ZM7.5498 13.2998C8.24016 13.2998 8.7998 12.7402 8.7998 12.0498C8.7998 11.3594 8.24016 10.7998 7.5498 10.7998C6.85945 10.7998 6.2998 11.3594 6.2998 12.0498C6.2998 12.7402 6.85945 13.2998 7.5498 13.2998ZM13.7998 12.0498C13.7998 12.7402 13.2402 13.2998 12.5498 13.2998C11.8594 13.2998 11.2998 12.7402 11.2998 12.0498C11.2998 11.3594 11.8594 10.7998 12.5498 10.7998C13.2402 10.7998 13.7998 11.3594 13.7998 12.0498ZM17.5498 13.2998C18.2402 13.2998 18.7998 12.7402 18.7998 12.0498C18.7998 11.3594 18.2402 10.7998 17.5498 10.7998C16.8594 10.7998 16.2998 11.3594 16.2998 12.0498C16.2998 12.7402 16.8594 13.2998 17.5498 13.2998Z" fill="white"/>
</svg>
