<svg width="24" height="24" viewBox="0 0 24 24" fill="none" xmlns="http://www.w3.org/2000/svg">
<path fill-rule="evenodd" clip-rule="evenodd" d="M1.25 12C1.25 6.06294 6.06294 1.25 12 1.25C17.9371 1.25 22.75 6.06294 22.75 12C22.75 17.9371 17.9371 22.75 12 22.75C6.06294 22.75 1.25 17.9371 1.25 12ZM7.0498 13.2998C7.74016 13.2998 8.2998 12.7402 8.2998 12.0498C8.2998 11.3594 7.74016 10.7998 7.0498 10.7998C6.35945 10.7998 5.7998 11.3594 5.7998 12.0498C5.7998 12.7402 6.35945 13.2998 7.0498 13.2998ZM13.2998 12.0498C13.2998 12.7402 12.7402 13.2998 12.0498 13.2998C11.3594 13.2998 10.7998 12.7402 10.7998 12.0498C10.7998 11.3594 11.3594 10.7998 12.0498 10.7998C12.7402 10.7998 13.2998 11.3594 13.2998 12.0498ZM17.0498 13.2998C17.7402 13.2998 18.2998 12.7402 18.2998 12.0498C18.2998 11.3594 17.7402 10.7998 17.0498 10.7998C16.3594 10.7998 15.7998 11.3594 15.7998 12.0498C15.7998 12.7402 16.3594 13.2998 17.0498 13.2998Z" fill="#5F5F67"/>
</svg>
