<svg width="69" height="26" viewBox="0 0 69 26" fill="none" xmlns="http://www.w3.org/2000/svg">
<path d="M8.5714 21V14.1429M2.85712 7.28571C2.85712 6.67951 3.07117 6.09812 3.4522 5.66947C3.83323 5.24082 4.35001 5 4.88886 5H19.1111C19.6499 5 20.1667 5.24082 20.5477 5.66947C20.9288 6.09812 21.1428 6.67951 21.1428 7.28571V18.7143C21.1428 19.3205 20.9288 19.9019 20.5477 20.3305C20.1667 20.7592 19.6499 21 19.1111 21H4.88886C4.35001 21 3.83323 20.7592 3.4522 20.3305C3.07117 19.9019 2.85712 19.3205 2.85712 18.7143V7.28571Z" stroke="#5F5F67" stroke-width="1.71429" stroke-linecap="round" stroke-linejoin="round"/>
<path d="M7.42853 5V13.5714H9.71424V5M15.4285 20.4286V13.5714V20.4286ZM14.2857 5V13.5714H16.5714V5" fill="#5F5F67"/>
<path d="M7.42853 5V13.5714H9.71424V5M15.4285 20.4286V13.5714M14.2857 5V13.5714H16.5714V5" stroke="#5F5F67" stroke-width="1.71429" stroke-linecap="round" stroke-linejoin="round"/>
<path d="M40.2847 6.375V20.2656H39.0503V6.375H40.2847ZM28.7847 15.7812C29.3862 15.7812 30.0347 15.7734 30.7066 15.7656V8.90625H29.1441V7.89062H37.0816V8.90625H35.5034V15.5859C36.2847 15.5312 37.0581 15.4609 37.8003 15.375L37.8784 16.2969C34.8472 16.7656 31.4956 16.8125 28.9253 16.8281L28.7847 15.7812ZM31.9097 15.7422C32.6909 15.7266 33.4956 15.6953 34.3003 15.6562V8.90625H31.9097V15.7422ZM45.8672 7.45312C47.9141 7.46094 49.3672 9.34375 49.3828 12.2969C49.3672 15.2578 47.9141 17.1328 45.8672 17.125C43.8047 17.1328 42.3594 15.2578 42.3672 12.2969C42.3594 9.34375 43.8047 7.46094 45.8672 7.45312ZM43.5234 12.2969C43.5312 14.5547 44.4922 16.0391 45.8672 16.0312C47.2578 16.0391 48.1953 14.5547 48.1953 12.2969C48.1953 10.0391 47.2578 8.55469 45.8672 8.54688C44.4922 8.55469 43.5312 10.0391 43.5234 12.2969ZM51.6797 20.2656V6.375H52.8984V11.9219H55.2266V12.9844H52.8984V20.2656H51.6797ZM66.7466 12.7031V13.7344H62.4341V17.4375H68.2153V18.4531H55.4966V17.4375H61.2153V13.7344H57.0591V7.5625H58.3091V12.7031H66.7466Z" fill="#5F5F67"/>
</svg>
