<svg width="73" height="126" viewBox="0 0 73 126" fill="none" xmlns="http://www.w3.org/2000/svg">
<rect y="36" width="73" height="90" rx="8" fill="#FF8C2E"/>
<circle cx="36" cy="36" r="27.5" fill="white" stroke="#FF8C2E" stroke-width="3"/>
<rect x="26" width="20" height="20" rx="10" fill="#FF8C2E"/>
<path d="M32.2119 15V13.9062L35.6436 10.4473C36.7305 9.31934 37.2705 8.69043 37.2705 7.82227C37.2705 6.84473 36.4775 6.22266 35.4385 6.22266C34.3379 6.22266 33.6406 6.91992 33.6338 7.97266H32.2119C32.1982 6.16113 33.5791 4.96484 35.4658 4.96484C37.373 4.96484 38.6924 6.1748 38.7061 7.78125C38.6924 8.88867 38.1729 9.77051 36.3135 11.5957L34.3037 13.6328V13.7148H38.8701V15H32.2119Z" fill="#FFF7ED"/>
</svg>
