<svg width="73" height="100" viewBox="0 0 73 100" fill="none" xmlns="http://www.w3.org/2000/svg">
<rect y="32" width="73" height="68" rx="8" fill="#FFAA50"/>
<circle cx="36" cy="36" r="27.5" fill="white" stroke="#FFAA50" stroke-width="3"/>
<rect x="26" width="20" height="20" rx="10" fill="#FFAA50"/>
<path d="M35.5205 15.1367C33.4697 15.1367 32.0137 14.0361 31.9521 12.416H33.4834C33.5381 13.2842 34.3994 13.8379 35.5068 13.8379C36.7031 13.8379 37.5713 13.1885 37.5713 12.2246C37.5713 11.2471 36.7578 10.5498 35.3428 10.543H34.4951V9.3125H35.3428C36.4707 9.31934 37.2568 8.69043 37.2568 7.74023C37.2568 6.83789 36.5801 6.22266 35.5342 6.22266C34.543 6.22266 33.6543 6.77637 33.6201 7.67188H32.1709C32.2119 6.05859 33.7021 4.96484 35.5479 4.96484C37.4961 4.96484 38.7197 6.19531 38.7061 7.6582C38.7197 8.78613 38.0225 9.59277 36.9561 9.85938V9.92773C38.3096 10.1191 39.0957 11.0283 39.0889 12.2793C39.0957 13.9268 37.5713 15.1367 35.5205 15.1367Z" fill="#FFF7ED"/>
</svg>
