<svg width="69" height="26" viewBox="0 0 69 26" fill="none" xmlns="http://www.w3.org/2000/svg">
<path fill-rule="evenodd" clip-rule="evenodd" d="M3.00005 6C6.00005 2.5 11.0001 2.5 11.0001 2.5L11.5425 5.21217L9.37398 5.79322C8.97388 5.90043 8.73644 6.31168 8.84365 6.71178C8.95086 7.11188 9.36211 7.34932 9.76221 7.24211L11.8413 6.68501C11.9441 7.11489 12.0928 7.52706 12.2822 7.91588L10.874 8.29319C10.4739 8.4004 10.2365 8.81165 10.3437 9.21175C10.4509 9.61185 10.8621 9.84929 11.2622 9.74208L13.1565 9.23451C13.8872 10.0715 14.849 10.7047 15.9525 11.0357L20.6612 12.4484C21.7526 12.7758 22.5001 13.7803 22.5001 14.9198C22.5001 15.4353 22.3489 15.9155 22.0884 16.3185C21.3563 15.8028 20.4635 15.5 19.5 15.5C17.9398 15.5 16.565 16.294 15.7578 17.5H15.7422C14.935 16.294 13.5602 15.5 12 15.5C10.4398 15.5 9.06504 16.294 8.25777 17.5H8.24223C7.43496 16.294 6.06021 15.5 4.5 15.5C3.5305 15.5 2.6326 15.8066 1.89798 16.3281C1.25368 15.2868 1.11924 13.7774 1.76627 12.7673C3.16392 10.5853 3.81037 8.16085 3.00005 6ZM3.5 20C3.5 19.4477 3.94772 19 4.5 19C5.05228 19 5.5 19.4477 5.5 20C5.5 20.5523 5.05228 21 4.5 21C3.94772 21 3.5 20.5523 3.5 20ZM4.5 17C2.84315 17 1.5 18.3431 1.5 20C1.5 21.6569 2.84315 23 4.5 23C6.15685 23 7.5 21.6569 7.5 20C7.5 18.3431 6.15685 17 4.5 17ZM11 20C11 19.4477 11.4477 19 12 19C12.5523 19 13 19.4477 13 20C13 20.5523 12.5523 21 12 21C11.4477 21 11 20.5523 11 20ZM12 17C10.3431 17 9 18.3431 9 20C9 21.6569 10.3431 23 12 23C13.6569 23 15 21.6569 15 20C15 18.3431 13.6569 17 12 17ZM18.5 20C18.5 19.4477 18.9477 19 19.5 19C20.0523 19 20.5 19.4477 20.5 20C20.5 20.5523 20.0523 21 19.5 21C18.9477 21 18.5 20.5523 18.5 20ZM19.5 17C17.8431 17 16.5 18.3431 16.5 20C16.5 21.6569 17.8431 23 19.5 23C21.1569 23 22.5 21.6569 22.5 20C22.5 18.3431 21.1569 17 19.5 17Z" fill="#5F5F67"/>
<path d="M40.2691 6.39062V16.5469H39.0503V6.39062H40.2691ZM29.1284 10.7656C29.1206 8.76562 30.6909 7.36719 32.7691 7.35938C34.8472 7.36719 36.4019 8.76562 36.4097 10.7656C36.4019 12.7891 34.8472 14.1953 32.7691 14.1875C30.6909 14.1953 29.1206 12.7891 29.1284 10.7656ZM30.3316 10.7656C30.3159 12.1484 31.3628 13.1094 32.7691 13.1094C34.1519 13.1094 35.2066 12.1484 35.2066 10.7656C35.2066 9.40625 34.1519 8.4375 32.7691 8.4375C31.3628 8.4375 30.3159 9.40625 30.3316 10.7656ZM31.3003 19.9688V15.5156H32.5191V18.9375H40.7066V19.9688H31.3003ZM52.8984 6.375V11.9062H55.2266V12.9375H52.8984V20.2969H51.6797V6.375H52.8984ZM42.6953 8.6875V7.67188H49.0078V12.6406H43.9453V15.8906C46.5234 15.8984 48.3281 15.7969 50.4297 15.4062L50.5547 16.4219C48.3672 16.8203 46.5156 16.9219 43.8359 16.9375H42.7266V11.625H47.7891V8.6875H42.6953ZM66.9653 6.39062V16.5469H65.7466V6.39062H66.9653ZM55.8247 10.7656C55.8169 8.76562 57.3872 7.36719 59.4653 7.35938C61.5434 7.36719 63.0981 8.76562 63.1059 10.7656C63.0981 12.7891 61.5434 14.1953 59.4653 14.1875C57.3872 14.1953 55.8169 12.7891 55.8247 10.7656ZM57.0278 10.7656C57.0122 12.1484 58.0591 13.1094 59.4653 13.1094C60.8481 13.1094 61.9028 12.1484 61.9028 10.7656C61.9028 9.40625 60.8481 8.4375 59.4653 8.4375C58.0591 8.4375 57.0122 9.40625 57.0278 10.7656ZM57.9966 19.9688V15.5156H59.2153V18.9375H67.4028V19.9688H57.9966Z" fill="#5F5F67"/>
</svg>
