<svg width="24" height="24" viewBox="0 0 24 24" fill="none" xmlns="http://www.w3.org/2000/svg">
<path fill-rule="evenodd" clip-rule="evenodd" d="M3.00005 5C6.00005 1.5 11.0001 1.5 11.0001 1.5L11.5425 4.21217L9.37398 4.79322C8.97388 4.90043 8.73644 5.31168 8.84365 5.71178C8.95086 6.11188 9.36211 6.34932 9.76221 6.24211L11.8413 5.68501C11.9441 6.11489 12.0928 6.52706 12.2822 6.91588L10.874 7.29319C10.4739 7.4004 10.2365 7.81165 10.3437 8.21175C10.4509 8.61185 10.8621 8.84929 11.2622 8.74208L13.1565 8.23451C13.8872 9.07147 14.849 9.7047 15.9525 10.0357L20.6612 11.4484C21.7526 11.7758 22.5001 12.7803 22.5001 13.9198C22.5001 14.4353 22.3489 14.9155 22.0884 15.3185C21.3563 14.8028 20.4635 14.5 19.5 14.5C17.9398 14.5 16.565 15.294 15.7578 16.5H15.7422C14.935 15.294 13.5602 14.5 12 14.5C10.4398 14.5 9.06504 15.294 8.25777 16.5H8.24223C7.43496 15.294 6.06021 14.5 4.5 14.5C3.5305 14.5 2.6326 14.8066 1.89798 15.3281C1.25368 14.2868 1.11924 12.7774 1.76627 11.7673C3.16392 9.58525 3.81037 7.16085 3.00005 5ZM3.5 19C3.5 18.4477 3.94772 18 4.5 18C5.05228 18 5.5 18.4477 5.5 19C5.5 19.5523 5.05228 20 4.5 20C3.94772 20 3.5 19.5523 3.5 19ZM4.5 16C2.84315 16 1.5 17.3431 1.5 19C1.5 20.6569 2.84315 22 4.5 22C6.15685 22 7.5 20.6569 7.5 19C7.5 17.3431 6.15685 16 4.5 16ZM11 19C11 18.4477 11.4477 18 12 18C12.5523 18 13 18.4477 13 19C13 19.5523 12.5523 20 12 20C11.4477 20 11 19.5523 11 19ZM12 16C10.3431 16 9 17.3431 9 19C9 20.6569 10.3431 22 12 22C13.6569 22 15 20.6569 15 19C15 17.3431 13.6569 16 12 16ZM18.5 19C18.5 18.4477 18.9477 18 19.5 18C20.0523 18 20.5 18.4477 20.5 19C20.5 19.5523 20.0523 20 19.5 20C18.9477 20 18.5 19.5523 18.5 19ZM19.5 16C17.8431 16 16.5 17.3431 16.5 19C16.5 20.6569 17.8431 22 19.5 22C21.1569 22 22.5 20.6569 22.5 19C22.5 17.3431 21.1569 16 19.5 16Z" fill="#5F5F67"/>
</svg>
