<svg width="32" height="32" viewBox="0 0 32 32" fill="none" xmlns="http://www.w3.org/2000/svg">
<g id="run">
<path id="Union" fill-rule="evenodd" clip-rule="evenodd" d="M23.3336 2.33325C21.4927 2.33329 20.0003 3.82566 20.0003 5.66658C20.0003 7.50756 21.4927 8.99996 23.3336 8.99992C25.1746 8.99988 26.6669 7.5075 26.667 5.66658C26.667 3.82561 25.1746 2.33321 23.3336 2.33325ZM5.33368 5.66659C4.4132 5.66659 3.66701 6.41278 3.66701 7.33325C3.66701 8.25373 4.4132 8.99992 5.33368 8.99992C7.04483 8.99992 10.7569 9.31982 14.0138 10.0436C14.9082 10.2423 15.7348 10.4645 16.4576 10.706C16.1561 11.0176 15.8782 11.313 15.63 11.5919C14.9919 12.3089 14.3618 13.1153 14.0797 13.9954C13.9262 14.4742 13.8633 15.0082 13.9749 15.5692C14.086 16.128 14.348 16.6022 14.6756 16.9974C14.7211 17.0522 14.7684 17.1062 14.8174 17.1593C13.9274 18.045 13.0425 18.8514 12.3008 19.4566C11.8586 19.8174 11.4962 20.083 11.2316 20.2491C11.2022 20.2676 11.1755 20.2838 11.1515 20.2981C10.9208 20.2294 10.4897 20.0396 9.79614 19.5586C8.8987 18.9363 7.8014 18.0011 6.45989 16.7713C6.07437 16.4179 5.54532 16.266 5.03103 16.361C4.51674 16.4559 4.07685 16.7868 3.84297 17.2546L2.50963 19.9212C2.09798 20.7445 2.43169 21.7456 3.25499 22.1573C4.07829 22.5689 5.07941 22.2352 5.49106 21.4119L5.85133 20.6914C6.57842 21.3137 7.2614 21.8573 7.89656 22.2978C8.92379 23.0101 10.1166 23.6666 11.3337 23.6666C11.7642 23.6666 12.1275 23.5257 12.3256 23.4391C12.5599 23.3367 12.7906 23.2061 13.0035 23.0725C13.4316 22.8038 13.9129 22.4434 14.4082 22.0393C15.3942 21.2347 16.5508 20.162 17.656 19.0301C18.3795 19.4139 18.7943 19.707 19.0372 19.9651C19.244 20.1848 19.3341 20.3795 19.3341 20.7497C19.334 21.2246 19.1766 21.9693 18.6978 23.196C18.2277 24.4004 17.5076 25.9249 16.5094 27.9212C16.251 28.4378 16.2786 29.0514 16.5823 29.5428C16.886 30.0342 17.4224 30.3333 18.0001 30.3333H20.6653C21.5858 30.3333 22.332 29.5871 22.332 28.6666C22.332 27.7471 21.5873 27.0015 20.6682 26.9999C21.1231 26.0357 21.503 25.1764 21.8029 24.408C22.3244 23.0722 22.6673 21.8586 22.6674 20.7501C22.6676 19.537 22.2578 18.5233 21.4646 17.6805C21.0367 17.226 20.5144 16.8408 19.9447 16.4951C20.227 16.1521 20.4927 15.8139 20.7356 15.4858C20.8357 15.3506 20.9334 15.2151 21.028 15.08C21.1415 15.1463 21.2574 15.2076 21.375 15.2639C22.4439 15.7751 23.6825 15.8956 24.8194 15.7332C27.0091 15.4204 29.667 13.8303 29.667 10.6666C29.667 9.74611 28.9208 8.99992 28.0003 8.99992C27.0799 8.99992 26.3337 9.74611 26.3337 10.6666C26.3337 11.5028 25.6583 12.2461 24.348 12.4333C23.7349 12.5209 23.1818 12.4331 22.8132 12.2568C22.5248 12.1188 22.3866 11.955 22.3248 11.7637C22.2612 10.9262 21.8654 10.2373 21.3866 9.71555C21.0587 9.35818 20.6688 9.05139 20.2538 8.78599C20.2336 8.77255 20.2131 8.7596 20.1924 8.74714C19.9829 8.61592 19.7675 8.49503 19.5509 8.38329C18.2109 7.69208 16.4748 7.17581 14.7369 6.78961C11.2437 6.01335 7.28919 5.66659 5.33368 5.66659ZM10.9909 20.3846C10.9686 20.3944 10.9706 20.3916 10.9932 20.3836L10.9909 20.3846Z" fill="#5F5F67"/>
</g>
</svg>
