<svg width="22" height="27" viewBox="0 0 22 27" fill="none" xmlns="http://www.w3.org/2000/svg">
<path fill-rule="evenodd" clip-rule="evenodd" d="M0.666687 6.33333C0.666687 2.83553 3.50222 0 7.00002 0H15C18.4978 0 21.3334 2.83553 21.3334 6.33333V23.8911C21.3334 25.7372 19.2911 26.8521 17.7383 25.8539L11.9013 22.1015C11.3523 21.7486 10.6478 21.7486 10.0988 22.1015L4.26179 25.8539C2.70893 26.8521 0.666687 25.7372 0.666687 23.8911V6.33333ZM7.00002 7.33333C6.44774 7.33333 6.00002 7.78105 6.00002 8.33333C6.00002 8.88562 6.44774 9.33333 7.00002 9.33333H15C15.5523 9.33333 16 8.88562 16 8.33333C16 7.78105 15.5523 7.33333 15 7.33333H7.00002Z" fill="currentColor"/>
</svg>
