<svg width="350" height="56" viewBox="0 0 350 56" fill="none" xmlns="http://www.w3.org/2000/svg">
<rect width="350" height="56" rx="8" fill="#1A1A25"/>
<path d="M76.1667 33.8333C79.8486 33.8333 82.8333 30.8486 82.8333 27.1667C82.8333 23.4848 79.8486 20.5 76.1667 20.5C72.4848 20.5 69.5 23.4848 69.5 27.1667C69.5 30.8486 72.4848 33.8333 76.1667 33.8333Z" stroke="white" stroke-width="1.5" stroke-linecap="round" stroke-linejoin="round"/>
<path d="M84.5 35.5L80.875 31.875" stroke="white" stroke-width="1.5" stroke-linecap="round" stroke-linejoin="round"/>
<path d="M99.2656 22.2969C101.391 22.2969 102.922 24.2344 102.938 27.2812C102.922 30.3516 101.391 32.2812 99.2656 32.2812C97.1172 32.2812 95.5859 30.3516 95.5938 27.2812C95.5859 24.2344 97.1172 22.2969 99.2656 22.2969ZM97.2656 27.2812C97.2578 29.4531 98.0781 30.7109 99.2656 30.7188C100.461 30.7109 101.258 29.4531 101.266 27.2812C101.258 25.125 100.461 23.8594 99.2656 23.8594C98.0781 23.8594 97.2578 25.125 97.2656 27.2812ZM104.797 35.3906V21.2656H106.531V26.6875H108.703V28.1562H106.531V35.3906H104.797ZM120.567 21.2656V35.4062H118.817V21.2656H120.567ZM109.27 27.2812C109.262 24.2344 110.817 22.2969 112.958 22.2969C115.075 22.2969 116.637 24.2344 116.645 27.2812C116.637 30.3516 115.075 32.2812 112.958 32.2812C110.817 32.2812 109.262 30.3516 109.27 27.2812ZM110.942 27.2812C110.942 29.4531 111.762 30.7109 112.958 30.7188C114.145 30.7109 114.958 29.4531 114.958 27.2812C114.958 25.125 114.145 23.8594 112.958 23.8594C111.762 23.8594 110.942 25.125 110.942 27.2812ZM134.353 21.2656V35.3906H132.681V21.2656H134.353ZM122.306 27.375C122.306 24.2656 123.509 22.3359 125.353 22.3438C127.063 22.3359 128.228 23.9375 128.431 26.5781H129.79V21.5156H131.446V34.7031H129.79V27.9844H128.446C128.282 30.7422 127.103 32.4297 125.353 32.4219C123.509 32.4297 122.306 30.4922 122.306 27.375ZM123.915 27.375C123.907 29.5859 124.454 30.7734 125.353 30.7656C126.29 30.7734 126.845 29.5859 126.853 27.375C126.845 25.1719 126.29 23.9766 125.353 23.9844C124.454 23.9766 123.907 25.1719 123.915 27.375ZM147.701 21.2656V35.3906H146.044V21.2656H147.701ZM135.404 31.1719C138.326 29.4453 139.669 27.2344 139.935 24.3906H136.123V22.9844H141.654C141.654 24.3516 141.482 25.6328 141.099 26.8281H143.06V21.6094H144.701V34.7188H143.06V28.2188H140.529C139.708 29.8359 138.38 31.25 136.388 32.4062L135.404 31.1719ZM163.616 21.2656V24.8906H165.287V26.3438H163.616V29.7031H161.866V21.2656H163.616ZM152.584 28.8438V22.3906H156.209V23.7812H154.241V27.3984C154.92 27.375 155.608 27.3047 156.366 27.1406L156.522 28.5781C155.311 28.8203 154.334 28.8359 153.272 28.8438H152.584ZM153.959 31.6875V30.2969H163.616V35.4062H161.866V31.6875H153.959ZM156.959 28.8438V22.3906H160.725V23.7812H158.631V27.4062C159.631 27.3828 160.303 27.3125 161.1 27.125L161.272 28.5625C160.17 28.8047 159.334 28.8359 157.709 28.8438H156.959ZM176.015 22.2031V28.3438H169.327V22.2031H176.015ZM170.156 34C172.656 33.6641 174.218 32.5625 174.499 31.3281H170.734V29.9531H180.187V31.3281H176.437C176.718 32.5312 178.312 33.6719 180.781 34.0156L180.156 35.3438C177.945 35.0312 176.273 34.0859 175.46 32.8125C174.648 34.0859 172.992 35.0156 170.796 35.3125L170.156 34ZM171.031 26.9531H174.312V23.5938H171.031V26.9531ZM178.249 29.2344V21.2656H179.984V24.4375H181.952V25.875H179.984V29.2344H178.249ZM193.629 25.2656V26.6406H183.848V21.7812H185.566V25.2656H193.629ZM182.176 29.6562V28.2812H195.082V29.6562H182.176ZM183.723 35.0625V30.9062H185.457V33.6562H193.723V35.0625H183.723ZM211.762 32.2344V33.6875H198.856V32.2344H211.762ZM199.919 23.9688V22.5781H210.637V23.9688H208.575V28.4688H210.591V29.8438H199.966V28.4688H201.95V23.9688H199.919ZM203.684 28.4688H206.856V23.9688H203.684V28.4688ZM225.111 32.3125V33.75H212.204V32.3125H217.767V30.0156H213.736V25.3906H221.861V23.6406H213.704V22.2344H223.579V26.7656H215.47V28.5938H223.908V30.0156H219.486V32.3125H225.111ZM236.787 22.6406V24.2344C236.787 26.125 236.787 28.0703 236.271 31.0469L234.506 30.8906C235.053 28.1172 235.053 26.0703 235.053 24.2344V24.0469H226.912V22.6406H236.787ZM225.553 33.4531V32.0312H238.428V33.4531H225.553ZM250.979 21.2812V29.6406H249.322V26.0938H247.854V29.5H246.229V21.5469H247.854V24.6875H249.322V21.2812H250.979ZM239.479 23.5156V22.1406H244.854V26.2188H241.182V27.75C242.83 27.7344 244.072 27.6562 245.51 27.375L245.666 28.75C243.963 29.0625 242.533 29.1016 240.463 29.0938H239.494V24.9219H243.182V23.5156H239.479ZM241.447 35.2188V30.2344H250.979V35.2188H241.447ZM243.182 33.8125H249.26V31.625H243.182V33.8125ZM260.644 24.1562C260.636 25.6719 261.784 27.1562 264.003 27.75L263.222 29.0781C261.589 28.6406 260.425 27.7031 259.792 26.5C259.167 27.8281 257.98 28.8594 256.316 29.3438L255.488 27.9688C257.714 27.3672 258.909 25.8125 258.909 24.1562V24.1094H255.956V22.7344H258.909V21.2031H260.659V22.7344H263.597V24.1094H260.644V24.1562ZM256.878 34C259.3 33.6719 260.87 32.6094 261.206 31.4062H257.456V30.0156H266.909V31.4062H263.175C263.511 32.5781 265.089 33.6797 267.503 34.0156L266.878 35.3438C264.667 35.0312 262.995 34.0859 262.183 32.8047C261.37 34.0781 259.706 35 257.519 35.3125L256.878 34ZM264.972 29.3594V21.2656H266.706V24.5469H268.675V25.9844H266.706V29.3594H264.972ZM280.711 21.2656V35.3906H278.961V21.2656H280.711ZM269.008 31.5C272.711 29.7422 274.414 27.3516 274.726 24.1406H269.726V22.7656H276.492C276.492 26.9688 274.859 30.5391 269.914 32.8906L269.008 31.5Z" fill="white"/>
</svg>
