<svg width="24" height="24" viewBox="0 0 24 24" fill="none" xmlns="http://www.w3.org/2000/svg">
<path fill-rule="evenodd" clip-rule="evenodd" d="M9.26822 1.85893C6.76187 2.53246 4.62598 4.1104 3.23197 6.22135L5.30273 6.78223L9.26822 3.90114V1.85893ZM2.47724 7.57097C1.85028 8.91673 1.50018 10.4175 1.50018 12C1.50018 13.1358 1.68053 14.2295 2.01415 15.254L4.38378 15.5031L6.36409 12.8307L4.86529 8.2178L2.47724 7.57097ZM4.64464 19.4931C3.8562 18.719 3.1894 17.8215 2.67553 16.8318L4.11104 16.9827L4.64464 19.4931ZM6.48499 20.9366C8.08778 21.9279 9.97717 22.5 12.0002 22.5C12.5892 22.5 13.1668 22.4515 13.7294 22.3583C13.5424 22.1816 13.4558 21.917 13.511 21.6573L14.6119 16.4781L12.4719 13.7166H7.57456L5.53528 16.4686L6.48499 20.9366ZM20.9821 17.4412C19.7788 19.4233 17.938 20.9754 15.7441 21.8129L15.0915 21.4361L16.0381 16.9827L20.5661 16.5068L20.9821 17.4412ZM21.8385 15.6767C22.2663 14.5324 22.5002 13.2935 22.5002 12C22.5002 11.1375 22.3962 10.2994 22.2001 9.49734L18.3217 7.36435L15.1712 8.21778L13.6755 12.8209L15.7548 15.5042L20.9512 14.958C21.2744 14.9241 21.5826 15.1021 21.7148 15.3989L21.8385 15.6767ZM19.8223 4.99525C20.4561 5.70253 20.9954 6.49626 21.4203 7.35658L19.3524 6.21935L19.8223 4.99525ZM18.647 3.87129C16.8367 2.38923 14.5223 1.5 12.0002 1.5C11.5834 1.5 11.1723 1.52428 10.7682 1.57151V3.90114L14.7337 6.78223L17.8541 5.93695L18.647 3.87129ZM6.33483 7.88647L10.0182 5.21033L13.7016 7.88647L12.2947 12.2166H7.74176L6.33483 7.88647Z" fill="#5F5F67"/>
</svg>
