<svg width="24" height="24" viewBox="0 0 24 24" fill="currentColor" xmlns="http://www.w3.org/2000/svg">
<path fill-rule="evenodd" clip-rule="evenodd" d="M15.25 8C15.25 6.61931 16.3693 5.50003 17.75 5.5C19.1307 5.49997 20.25 6.61927 20.25 8C20.25 9.38069 19.1307 10.5 17.75 10.5C16.3693 10.5 15.25 9.38073 15.25 8ZM14.886 10.6182C14.8853 10.6175 14.8846 10.6168 14.8839 10.6161C13.1695 8.90177 10.9319 7.94215 8.90903 7.47015C6.90774 7.00318 4.94659 6.97482 3.69672 7.2874C3.02699 7.45489 2.61985 8.13359 2.78734 8.80332C2.95483 9.47305 3.63353 9.8802 4.30326 9.7127C5.0534 9.5251 6.59224 9.49671 8.34095 9.90475C9.5761 10.193 10.8292 10.6793 11.9131 11.4032C11.4294 11.9077 10.7795 12.5265 10.0593 13.1466C8.9556 14.097 7.79964 14.9527 6.94097 15.382C6.8429 15.431 6.75409 15.4912 6.67531 15.5603C5.45627 15.8439 4.24743 15.898 2.53085 15.0928C1.90584 14.7996 1.1615 15.0686 0.868317 15.6936C0.575131 16.3186 0.844125 17.063 1.46913 17.3562C3.92285 18.5072 5.78282 18.3636 7.48192 17.9371C7.97236 17.814 8.41312 17.6829 8.83183 17.5583C9.88145 17.2461 10.7925 16.9751 12 16.9751C13.212 16.9751 14.1938 17.2661 15.3174 17.5992L15.3174 17.5992C15.4262 17.6315 15.5362 17.6641 15.6479 17.6969C16.3103 17.8913 17.0049 17.512 17.1994 16.8496C17.3938 16.1872 17.0145 15.4925 16.3521 15.2981C16.2409 15.2655 16.1273 15.2315 16.0112 15.1969C15.57 15.0651 15.0932 14.9228 14.5773 14.7996C14.8493 14.5209 15.1179 14.2286 15.344 13.9497C16.589 14.5431 17.8718 14.7868 18.9526 14.8712C19.8399 14.9406 20.6247 14.9057 21.1986 14.8545C21.4866 14.8288 21.7229 14.7989 21.8919 14.7757C21.9458 14.7683 22 14.7605 22.04 14.7548L22.0838 14.7486L22.1006 14.7463C22.7432 14.6951 23.2491 14.1578 23.25 13.5019C23.2509 12.8115 22.692 12.2512 22.0016 12.2503C21.9141 12.2501 21.8355 12.2599 21.8217 12.2616L21.82 12.2618C21.7911 12.2652 21.7608 12.2694 21.7365 12.2728L21.6732 12.2818L21.6731 12.2818C21.6378 12.2869 21.6007 12.2922 21.5518 12.2989C21.4083 12.3186 21.2134 12.3433 20.9764 12.3644C20.5003 12.4069 19.8601 12.4345 19.1474 12.3788C17.7034 12.266 16.0926 11.8235 14.886 10.6182ZM22.1172 14.7441L22.1283 14.7428C22.1285 14.7428 22.1271 14.7429 22.1238 14.7433C22.1221 14.7435 22.1199 14.7437 22.1172 14.7441Z" fill="#currentColor"/>
</svg>
