<svg width="24" height="24" viewBox="0 0 24 24" fill="none" xmlns="http://www.w3.org/2000/svg">
<path fill-rule="evenodd" clip-rule="evenodd" d="M15.8144 16.5823C16.7846 15.857 17.6534 14.8856 18.355 13.6703C20.9264 9.21649 19.5188 4.45639 15.6924 2.24726C11.8661 0.0381281 7.07003 1.21649 4.49861 5.67033C3.79697 6.8856 3.39009 8.12367 3.24708 9.3265L9.39116 12.8738L15.8144 16.5823ZM14.34 17.463L8.64116 14.1728L3.22157 11.0438C3.45157 13.5621 4.86478 15.7792 7.14109 17.0934C9.41741 18.4076 12.044 18.523 14.34 17.463ZM5.34493 17.6974L3.19624 20.6949C3.02405 20.9351 3.09667 21.2714 3.35262 21.4192L5.35568 22.5756C5.61537 22.7256 5.94772 22.6148 6.0655 22.339L7.5132 18.9494C7.1329 18.79 6.75785 18.6043 6.39007 18.392C6.02197 18.1794 5.67333 17.9473 5.34493 17.6974ZM19 22.5001C20.3807 22.5001 21.5 21.3808 21.5 20.0001C21.5 18.6194 20.3807 17.5001 19 17.5001C17.6193 17.5001 16.5 18.6194 16.5 20.0001C16.5 21.3808 17.6193 22.5001 19 22.5001Z" fill="#5F5F67"/>
</svg>
