<svg width="24" height="24" viewBox="0 0 24 24" fill="none" xmlns="http://www.w3.org/2000/svg">
<path fill-rule="evenodd" clip-rule="evenodd" d="M11.5775 1.50879C7.17792 1.68291 3.47427 4.56404 2.08618 8.53256C2.09086 8.53843 2.09546 8.54439 2.1 8.55044C3.13004 9.92382 4.42583 10.7972 5.83188 11.5115C6.49875 11.8503 7.17917 12.1479 7.87105 12.4506L7.99705 12.5058C8.72416 12.8241 9.46477 13.1514 10.1662 13.5266C11.5779 14.2817 12.8907 15.261 13.7612 16.8701C14.4795 18.1979 14.8615 19.8888 14.8244 22.1162C18.84 20.9974 21.8858 17.5517 22.4174 13.3236C20.5215 13.3699 19.0858 12.9797 17.9639 12.2241C16.6371 11.3306 15.8628 9.99953 15.2515 8.61606C14.9972 8.04055 14.762 7.43339 14.529 6.83212C14.482 6.71073 14.4351 6.58957 14.3881 6.46897C14.1049 5.7421 13.8153 5.02205 13.474 4.32081C12.9819 3.3094 12.3888 2.35143 11.5775 1.50879ZM22.4985 11.8206C20.7648 11.8813 19.6209 11.5316 18.8018 10.9799C17.8316 10.3266 17.1997 9.31385 16.6235 8.00982C16.3846 7.46918 16.1644 6.9009 15.9316 6.30011L15.9316 6.30006C15.8836 6.17626 15.8351 6.05109 15.7858 5.92449C15.5006 5.19238 15.1925 4.42414 14.8228 3.66445C14.4869 2.97406 14.0975 2.28521 13.621 1.6248C18.5928 2.39526 22.4117 6.65369 22.4985 11.8206ZM12 22.5004C12.4457 22.5004 12.8849 22.4727 13.3161 22.4188C13.3953 20.1979 13.0357 18.6815 12.4419 17.5839C11.7656 16.3337 10.7346 15.5317 9.45876 14.8493C8.81648 14.5057 8.1274 14.2003 7.39553 13.8799L7.26052 13.8208L7.2605 13.8208L7.26036 13.8207C6.57688 13.5218 5.85936 13.2079 5.15249 12.8488C3.92776 12.2266 2.70246 11.4532 1.63356 10.3212C1.54567 10.868 1.5 11.4289 1.5 12.0004C1.5 17.7994 6.20101 22.5004 12 22.5004Z" fill="#5F5F67"/>
</svg>
