<svg width="24" height="24" viewBox="0 0 24 24" fill="none" xmlns="http://www.w3.org/2000/svg">
<path fill-rule="evenodd" clip-rule="evenodd" d="M15.847 0.276486C16.5228 0.417824 16.956 1.08019 16.8146 1.75592C16.6138 2.71607 16.4215 3.59449 16.2433 4.40861C15.8573 6.17221 15.5373 7.63405 15.3396 8.9712C15.2315 9.70213 15.1641 10.3741 15.1451 11.0102C15.145 11.0258 15.1446 11.0415 15.1438 11.0573C15.1176 12.0627 15.2137 12.9794 15.4634 13.8996C15.5195 14.1064 15.5838 14.3151 15.6571 14.5266C15.6727 14.5645 15.6864 14.6034 15.6983 14.6429C16.3807 16.5369 17.7853 18.6676 20.4371 21.673C20.7622 22.0415 20.8412 22.5663 20.6391 23.0142C20.437 23.4621 19.9912 23.75 19.4998 23.75H17.5C16.8096 23.75 16.25 23.1904 16.25 22.5C16.25 22.0171 16.5238 21.5981 16.9247 21.3899C15.3709 19.4565 14.29 17.7729 13.6028 16.1453C12.9825 16.0697 12.429 16.0127 11.9345 15.9758C11.9171 15.9749 11.8997 15.9736 11.8825 15.972C11.2094 15.9232 10.6467 15.9123 10.174 15.9427C9.2197 16.0041 8.84636 16.2215 8.66028 16.4193C8.45325 16.6392 8.23809 17.0864 8.15199 18.1267C8.06701 19.1537 8.12168 20.534 8.24723 22.4173C8.27024 22.7625 8.14916 23.1018 7.91281 23.3544C7.67645 23.607 7.34596 23.7504 7 23.7504H5C4.30964 23.7504 3.75 23.1908 3.75 22.5004C3.75 21.8101 4.30964 21.2504 5 21.2504H5.6719C5.60405 19.963 5.58344 18.8518 5.66051 17.9206C5.76191 16.6952 6.04675 15.5485 6.83972 14.7059C7.65364 13.8411 8.7803 13.5272 10.0135 13.4479C10.1961 13.4361 10.3858 13.4293 10.5825 13.4269C10.5773 13.3672 10.5723 13.3068 10.5677 13.246C10.5348 12.8135 10.5143 12.3205 10.5434 11.8798C10.5579 11.6608 10.5869 11.4155 10.6485 11.1795C10.7022 10.9739 10.82 10.6142 11.1165 10.3171C11.4834 9.94962 11.933 9.80155 12.2507 9.73487C12.4147 9.70045 12.5777 9.6807 12.732 9.67046C12.763 9.36702 12.8013 9.05993 12.8457 8.74821C12.814 8.7494 12.7821 8.75001 12.75 8.75001C11.3693 8.75001 10.25 7.63072 10.25 6.25001C10.25 4.8693 11.3693 3.75001 12.75 3.75001C13.117 3.75001 13.4655 3.82908 13.7794 3.97112C13.794 3.90454 13.8086 3.83766 13.8233 3.77048C13.9979 2.97268 14.1819 2.13205 14.3676 1.24409C14.5089 0.56836 15.1713 0.135148 15.847 0.276486Z" fill="#5F5F67"/>
</svg>
