<svg width="24" height="24" viewBox="0 0 24 24" fill="none" xmlns="http://www.w3.org/2000/svg">
<path fill-rule="evenodd" clip-rule="evenodd" d="M16.1358 12.1351C17.8932 10.3777 17.8932 7.5285 16.1358 5.77114C14.3785 4.01379 11.5292 4.01379 9.77186 5.77114L3.05435 12.4887C1.29699 14.246 1.29699 17.0953 3.05435 18.8526C4.31298 20.1113 6.1317 20.4684 7.70824 19.9242C7.71961 19.9208 7.73118 19.9171 7.74295 19.9129C8.35426 19.6961 8.92806 19.343 9.41725 18.8539C9.41924 18.8519 9.42119 18.8499 9.42309 18.8478L14.0161 14.2548L14.0138 14.2573L14.7269 13.5442C14.7281 13.543 14.7292 13.5418 14.7303 13.5407L16.1358 12.1351ZM6.23584 13.9203C5.26934 13.9203 4.48584 14.7038 4.48584 15.6703C4.48584 16.6368 5.26934 17.4203 6.23584 17.4203C7.20234 17.4203 7.98584 16.6368 7.98584 15.6703C7.98584 14.7038 7.20234 13.9203 6.23584 13.9203ZM2.98584 15.6703C2.98584 13.8754 4.44091 12.4203 6.23584 12.4203C8.03077 12.4203 9.48584 13.8754 9.48584 15.6703C9.48584 17.4652 8.03077 18.9203 6.23584 18.9203C4.44091 18.9203 2.98584 17.4652 2.98584 15.6703ZM10.597 20.2174C10.4437 20.2174 10.3695 20.023 10.4779 19.9145L17.1954 13.197C17.1959 13.1965 17.1965 13.1963 17.1971 13.1963L22.1536 13.1963C23.0463 13.1963 23.4917 14.277 22.8582 14.9059L17.8014 19.927C17.6141 20.113 17.3608 20.2174 17.0968 20.2174L10.597 20.2174Z" fill="#5F5F67"/>
</svg>
