<svg width="97" height="97" viewBox="0 0 97 97" fill="none" xmlns="http://www.w3.org/2000/svg">
<g clip-path="url(#clip0_164_4223)">
<path fill-rule="evenodd" clip-rule="evenodd" d="M15.3296 57.6747L20.5176 62.8625L52.5225 21.9356C52.4668 19.0654 51.2807 15.6825 47.7134 12.1153C37.7881 2.19023 29.9069 11.3119 29.9069 11.3119L15.3296 57.6747ZM12.2671 63.1151C4.85732 71.7753 4.99541 80.1004 10.7868 85.8949C16.5782 91.6894 24.7338 91.654 33.3687 84.216L12.2671 63.1151ZM38.8062 81.1505L85.1748 66.5818C85.1748 66.5818 94.4866 58.8882 84.5613 48.9631C80.8681 45.2699 77.3725 44.129 74.4388 44.1523L33.814 76.1585L38.8062 81.1505ZM70.5448 39.5659C70.6066 37.0039 69.5365 33.9383 66.1383 30.5401C62.6303 27.0322 59.4766 26.005 56.8652 26.1427L24.8008 67.1456L29.5326 71.8773L70.5448 39.5659Z" fill="white" fill-opacity="0.2"/>
</g>
<defs>
<clipPath id="clip0_164_4223">
<rect width="96.2" height="96.2" fill="white" transform="translate(0.324097 0.800049)"/>
</clipPath>
</defs>
</svg>
