<svg width="97" height="97" viewBox="0 0 97 97" fill="none" xmlns="http://www.w3.org/2000/svg">
<path fill-rule="evenodd" clip-rule="evenodd" d="M78.0854 44.5466C77.252 45.3809 76.2538 46.0125 75.1672 46.4099C75.242 47.2299 75.2802 48.0605 75.2802 48.9C75.2802 63.8428 63.1667 75.9563 48.224 75.9563C33.2812 75.9563 21.1677 63.8428 21.1677 48.9C21.1677 33.9572 33.2812 21.8438 48.224 21.8438C49.0633 21.8438 49.8936 21.882 50.7134 21.9568C51.1098 20.8722 51.7396 19.8755 52.5714 19.0429L62.3593 9.24505C57.9413 7.67009 53.1828 6.8125 48.224 6.8125C24.9797 6.8125 6.13647 25.6557 6.13647 48.9C6.13647 72.1443 24.9797 90.9875 48.224 90.9875C71.4683 90.9875 90.3115 72.1443 90.3115 48.9C90.3115 43.9353 89.4518 39.1713 87.8733 34.7489L78.0854 44.5466ZM50.2269 32.7262L50.2265 27.9503C49.5674 27.8881 48.8994 27.8563 48.224 27.8563C36.6018 27.8563 27.1802 37.2779 27.1802 48.9C27.1802 60.5221 36.6018 69.9438 48.224 69.9438C59.8461 69.9438 69.2677 60.5221 69.2677 48.9C69.2677 48.2245 69.2359 47.5565 69.1737 46.8972L64.3994 46.8969L55.3103 55.9874C51.3972 59.901 45.0524 59.9015 41.1387 55.9884C37.225 52.0754 37.2246 45.7305 41.1376 41.8168L50.2269 32.7262ZM61.9109 40.8824L72.4129 40.8832C72.9445 40.8833 73.4543 40.6721 73.8301 40.2963L89.6388 24.4893C90.8886 23.2396 90.0267 21.1017 88.2597 21.0682L76.2804 20.8415L76.0537 8.86181C76.0203 7.09485 73.8825 6.23291 72.6328 7.48253L56.8243 23.2903C56.4483 23.6662 56.2372 24.176 56.2372 24.7076L56.238 35.218L45.3895 46.068C43.8242 47.6334 43.8244 50.1714 45.3898 51.7366C46.9553 53.3019 49.4932 53.3017 51.0585 51.7362L61.9109 40.8824Z" fill="white" fill-opacity="0.2"/>
</svg>
