<svg width="99" height="97" viewBox="0 0 99 97" fill="none" xmlns="http://www.w3.org/2000/svg">
<path fill-rule="evenodd" clip-rule="evenodd" d="M50.1699 3.8064C44.5351 3.80651 39.967 8.29296 39.9669 13.8272C39.9668 19.3617 44.5349 23.8482 50.17 23.8481C55.8049 23.8479 60.3729 19.3615 60.373 13.8272C60.3731 8.29279 55.805 3.80628 50.1699 3.8064ZM18.1803 16.4208C20.6663 15.1185 23.7565 16.0421 25.0824 18.4837C27.0946 22.1889 28.8928 25.2405 30.6239 27.646C32.3728 30.0761 33.8634 31.5745 35.16 32.4185C36.3301 33.1802 37.3329 33.4127 38.45 33.2988C39.6761 33.1738 41.4531 32.5818 43.9588 30.9169C45.6708 29.501 47.7363 29.1258 49.1529 29.0182C50.8327 28.8906 52.6401 29.0655 54.3729 29.3582C57.8659 29.9483 61.9849 31.1834 66.0609 32.6391C74.2385 35.5595 83.1185 39.687 88.1706 42.5517C90.6106 43.9353 91.4466 46.9997 90.0379 49.3961C88.6291 51.7925 85.5091 52.6136 83.0691 51.23C78.5782 48.6835 70.2448 44.796 62.5742 42.0566C61.9884 41.8475 61.4116 41.6468 60.8452 41.4554C61.0128 41.924 61.1794 42.3945 61.344 42.8689C62.2824 45.5746 63.3736 48.9534 63.1675 51.9891C63.0521 53.6901 62.5202 55.5981 61.1018 57.2556C59.8162 58.7579 58.1471 59.6508 56.4347 60.1601C59.388 68.3844 63.391 77.6956 67.9971 86.7433C68.7878 88.2964 68.7032 90.141 67.7737 91.6181C66.8442 93.0953 65.2022 93.9944 63.4341 93.9944H55.2717C52.4542 93.9944 50.1701 91.7511 50.1701 88.984C50.1701 86.2168 52.4542 83.9735 55.2717 83.9735H55.3259C51.495 75.8121 48.1973 67.6673 45.7355 60.4092C44.5799 60.2576 43.3727 60.0667 42.1152 59.8421C36.7491 58.8839 33.4769 58.5033 31.5236 58.5765C31.5371 58.6612 31.5524 58.7514 31.5698 58.8475C31.756 59.873 32.1188 61.2169 32.6868 62.9959C33.3265 64.9996 34.1109 67.2169 35.0352 69.8296L35.0353 69.8298L35.0354 69.8299L35.0356 69.8306C35.8137 72.0301 36.691 74.5098 37.6645 77.3781C38.1831 78.906 37.9222 80.5856 36.9633 81.8922C36.0045 83.1987 34.4646 83.973 32.8248 83.973H24.6624C21.8449 83.973 19.5609 81.7297 19.5609 78.9625C19.5609 76.1954 21.8449 73.9521 24.6624 73.9521H25.6913L25.4827 73.3613C24.4923 70.5566 23.6097 68.057 22.9511 65.994C22.3393 64.0778 21.8253 62.2589 21.5253 60.607C21.2349 59.0078 21.0663 57.1686 21.4596 55.3658C21.8985 53.3545 23.0205 51.5016 24.9753 50.2361C26.7253 49.103 28.7157 48.7229 30.4483 48.5999C33.5518 48.3796 37.6492 48.8945 42.5692 49.7422C41.9699 47.3024 41.5185 45.0313 41.2467 42.9934C40.6679 43.1151 40.087 43.2066 39.5038 43.266C35.7812 43.6457 32.4432 42.6721 29.5231 40.7712C26.7295 38.9526 24.3806 36.332 22.2921 33.4299C20.1859 30.5033 18.149 27.0097 16.0799 23.1997C14.7539 20.7581 15.6943 17.7231 18.1803 16.4208Z" fill="white" fill-opacity="0.2"/>
</svg>
