<svg width="97" height="97" viewBox="0 0 97 97" fill="none" xmlns="http://www.w3.org/2000/svg">
<path fill-rule="evenodd" clip-rule="evenodd" d="M57.4639 16.4089C58.8689 16.3259 60.3104 16.408 61.7676 16.673C70.2643 18.2178 76.5185 25.5658 76.6596 34.1368C76.6602 34.1728 76.6612 34.2087 76.6628 34.2444C76.6598 34.3073 76.6583 34.3705 76.6583 34.4341V38.0792H84.675V34.4341C84.675 34.376 84.6738 34.3182 84.6713 34.2608C84.6753 34.1761 84.6766 34.0908 84.6751 34.0049C84.4706 21.5792 75.4312 11.0092 63.2016 8.78561C58.0688 7.85236 53.0424 8.49584 48.5999 10.3401C44.1574 8.49591 39.1312 7.85247 33.9984 8.7857C21.6276 11.0349 12.525 21.8246 12.525 34.4341V38.0792H20.5417V34.4341C20.5417 25.7348 26.8381 18.2357 35.4325 16.6731C36.8895 16.4081 38.331 16.326 39.736 16.4089C35.3312 21.0048 32.5667 27.2438 32.5667 34.237C32.5667 34.2371 32.5667 34.2371 32.5667 34.2371V44.0935C32.5667 52.9485 39.745 60.1269 48.6 60.1269C57.455 60.1269 64.6333 52.9485 64.6333 44.0935V34.2371C64.6333 27.2438 61.8688 21.0048 57.4639 16.4089ZM48.5999 19.3827C43.7967 22.5684 40.5833 27.9803 40.5833 34.237C40.5833 34.2371 40.5833 34.2371 40.5833 34.2371V44.0935C40.5833 48.521 44.1725 52.1102 48.6 52.1102C53.0275 52.1102 56.6167 48.521 56.6167 44.0935V34.2371C56.6167 27.9804 53.4032 22.5684 48.5999 19.3827ZM11.1004 44.0917C8.19899 44.0917 6.40688 47.2569 7.89964 49.7448C9.59864 52.5765 10.311 55.8915 9.92511 59.1712L7.56525 79.23C7.00456 83.9958 10.7283 88.1833 15.527 88.1833H17.5385C22.3372 88.1833 26.0609 83.9958 25.5002 79.23L23.1404 59.1712C22.7545 55.8915 23.4669 52.5765 25.1659 49.7448C26.6586 47.2569 24.8665 44.0917 21.9651 44.0917H11.1004ZM75.2337 44.0917C72.3323 44.0917 70.5402 47.2569 72.033 49.7448C73.732 52.5765 74.4443 55.8915 74.0584 59.1712L71.6986 79.23C71.1379 83.9958 74.8616 88.1833 79.6603 88.1833H81.6718C86.4706 88.1833 90.1943 83.9958 89.6336 79.23L87.2737 59.1712C86.8879 55.8915 87.6002 52.5765 89.2992 49.7448C90.7919 47.2569 88.9998 44.0917 86.0984 44.0917H75.2337Z" fill="#F2F2F2" fill-opacity="0.2"/>
</svg>
