<svg width="97" height="97" viewBox="0 0 97 97" fill="none" xmlns="http://www.w3.org/2000/svg">
<path fill-rule="evenodd" clip-rule="evenodd" d="M37.4501 7.45123C27.4038 10.151 18.8425 16.4759 13.2548 24.9373L21.5551 27.1855L37.4501 15.6371V7.45123ZM10.2296 30.347C7.71652 35.7412 6.31323 41.7568 6.31323 48.1C6.31323 52.6528 7.03613 57.0367 8.3734 61.1433L17.8717 62.1416L25.8094 51.4295L19.8017 32.9397L10.2296 30.347ZM18.9173 78.1347C15.757 75.0321 13.0842 71.4345 11.0244 67.4676L16.7784 68.0723L18.9173 78.1347ZM26.294 83.921C32.7185 87.8943 40.2918 90.1875 48.4007 90.1875C50.7616 90.1875 53.077 89.9931 55.332 89.6195C54.5823 88.9111 54.2353 87.8505 54.4566 86.8095L58.8692 66.0499L50.2917 54.9806H30.6614L22.4872 66.0117L26.294 83.921ZM84.4034 69.9102C79.5802 77.855 72.2013 84.0763 63.4075 87.4334L60.7918 85.9232L64.5861 68.0723L82.7358 66.1647L84.4034 69.9102ZM87.8358 62.8374C89.5507 58.2508 90.4882 53.2849 90.4882 48.1C90.4882 44.643 90.0714 41.2833 89.2853 38.0685L73.7393 29.5188L61.1111 32.9396L55.1161 51.3904L63.4505 62.1461L84.2795 59.9569C85.5748 59.8207 86.8104 60.5341 87.3401 61.7239L87.8358 62.8374ZM79.7544 20.0226C82.2949 22.8576 84.4565 26.0392 86.1595 29.4877L77.8709 24.9292L79.7544 20.0226ZM75.0435 15.5174C67.7872 9.57686 58.5102 6.01251 48.4007 6.01251C46.7302 6.01251 45.0823 6.10984 43.4626 6.29914V15.6371L59.3576 27.1854L71.8652 23.7973L75.0435 15.5174ZM25.6921 31.6116L40.4564 20.8848L55.2206 31.6116L49.5812 48.9681H31.3315L25.6921 31.6116Z" fill="white" fill-opacity="0.2"/>
</svg>
