<svg width="98" height="97" viewBox="0 0 98 97" fill="none" xmlns="http://www.w3.org/2000/svg">
<path fill-rule="evenodd" clip-rule="evenodd" d="M62.0272 32.0667C62.0273 26.5324 66.5137 22.046 72.048 22.0458C77.5824 22.0457 82.0689 26.5322 82.0688 32.0667C82.0687 37.6009 77.5823 42.0874 72.048 42.0875C66.5136 42.0876 62.0271 37.6011 62.0272 32.0667ZM60.5681 42.5613C60.5653 42.5585 60.5625 42.5557 60.5597 42.5529C53.6881 35.6813 44.7187 31.8348 36.6105 29.9429C28.5887 28.0711 20.7277 27.9574 15.7178 29.2103C13.0333 29.8817 11.4013 32.6022 12.0727 35.2867C12.7441 37.9712 15.4645 39.6031 18.149 38.9318C21.1558 38.1798 27.324 38.066 34.3334 39.7016C39.2843 40.8568 44.3072 42.8062 48.652 45.7078C46.713 47.73 44.1078 50.2102 41.2213 52.6958C36.7971 56.5055 32.1637 59.9352 28.7219 61.6562C28.3287 61.8527 27.9728 62.094 27.657 62.3707C22.7707 63.5076 17.9252 63.7247 11.0446 60.497C8.53939 59.3218 5.55581 60.4 4.38063 62.9053C3.20544 65.4105 4.28366 68.3941 6.78889 69.5693C16.6242 74.1829 24.0796 73.6072 30.8902 71.8979C32.856 71.4045 34.6227 70.8789 36.3011 70.3796C40.5083 69.128 44.1599 68.0417 49.0001 68.0417C53.8584 68.0417 57.7935 69.2083 62.2974 70.5436L62.2976 70.5436C62.7333 70.6728 63.1744 70.8036 63.6222 70.935C66.2773 71.7144 69.0616 70.1938 69.841 67.5387C70.6204 64.8836 69.0998 62.0993 66.4447 61.3199C65.999 61.1891 65.5437 61.0531 65.0785 60.9142C63.31 60.3861 61.3988 59.8155 59.3308 59.3216C60.4211 58.2045 61.4978 57.0332 62.404 55.9149C67.3942 58.2936 72.5364 59.2703 76.8685 59.6089C80.425 59.8868 83.5709 59.7472 85.8711 59.542C87.0257 59.4389 87.9728 59.3188 88.6503 59.2258C88.8663 59.1961 89.0836 59.1651 89.2437 59.1422L89.4195 59.1173L89.4869 59.108C92.0626 58.9028 94.0904 56.7492 94.0938 54.1201C94.0974 51.3529 91.8571 49.1067 89.0899 49.1031C88.7392 49.1027 88.4242 49.1417 88.3686 49.1486L88.3619 49.1494C88.2462 49.1632 88.1247 49.1799 88.0271 49.1936L87.7735 49.2297L87.773 49.2297C87.6316 49.2499 87.4831 49.2712 87.2869 49.2981C86.7118 49.3771 85.9303 49.476 84.9806 49.5608C83.072 49.731 80.506 49.8417 77.6492 49.6185C71.8612 49.1662 65.4048 47.3926 60.5681 42.5613ZM89.5534 59.0992L89.5977 59.0941C89.5984 59.0939 89.5928 59.0945 89.5797 59.096C89.573 59.0968 89.5642 59.0979 89.5534 59.0992Z" fill="white" fill-opacity="0.2"/>
</svg>
