<svg width="97" height="97" viewBox="0 0 97 97" fill="none" xmlns="http://www.w3.org/2000/svg">
<path fill-rule="evenodd" clip-rule="evenodd" d="M63.9138 67.2669C67.8025 64.3598 71.2848 60.4661 74.0972 55.5949C84.4043 37.7424 78.7619 18.6623 63.4247 9.8074C48.0875 0.952466 28.8632 5.67573 18.5561 23.5282C15.7437 28.3994 14.1128 33.362 13.5396 38.1833L38.1671 52.402L63.9138 67.2669ZM58.0035 70.7972L35.1608 57.609L13.4373 45.0669C14.3593 55.1611 20.0239 64.0478 29.1481 69.3157C38.2723 74.5836 48.8007 75.0459 58.0035 70.7972ZM21.9484 71.7366L13.3358 83.7515C12.6456 84.7143 12.9367 86.0625 13.9626 86.6548L21.9915 91.2903C23.0325 91.8913 24.3646 91.4472 24.8367 90.3418L30.6396 76.755C29.1152 76.1163 27.6119 75.3719 26.1377 74.5207C24.6622 73.6689 23.2648 72.7383 21.9484 71.7366ZM76.6825 90.9875C82.2169 90.9875 86.7034 86.5011 86.7034 80.9667C86.7034 75.4323 82.2169 70.9459 76.6825 70.9459C71.1482 70.9459 66.6617 75.4323 66.6617 80.9667C66.6617 86.5011 71.1482 90.9875 76.6825 90.9875Z" fill="white" fill-opacity="0.2"/>
</svg>
