<svg width="97" height="97" viewBox="0 0 97 97" fill="none" xmlns="http://www.w3.org/2000/svg">
<path fill-rule="evenodd" clip-rule="evenodd" d="M6.9706 43.4132C9.13164 23.914 24.6141 8.43206 44.1136 6.2718C45.2014 9.32272 45.7937 12.6089 45.7937 16.0333C45.7937 32.083 32.7829 45.0938 16.7333 45.0938C13.3084 45.0938 10.0218 44.5013 6.9706 43.4132ZM51.8062 16.0333C51.8062 12.5621 51.3019 9.20869 50.3626 6.0423C72.3641 6.84535 90.0554 24.5364 90.8589 46.5377C87.6922 45.5982 84.3383 45.0938 80.8666 45.0938C61.4964 45.0938 45.7937 60.7964 45.7937 80.1667C45.7937 83.6389 46.2983 86.9932 47.238 90.1604C25.2354 89.3577 7.54306 71.6651 6.74084 49.6623C9.90765 50.6018 13.2615 51.1063 16.7333 51.1063C36.1035 51.1063 51.8062 35.4036 51.8062 16.0333ZM90.6295 52.7869C88.4696 72.287 72.9871 87.77 53.4872 89.9307C52.3989 86.8791 51.8062 83.5921 51.8062 80.1667C51.8062 64.117 64.817 51.1063 80.8666 51.1063C84.2916 51.1063 87.5782 51.6988 90.6295 52.7869Z" fill="white" fill-opacity="0.2"/>
</svg>
