<svg width="97" height="97" viewBox="0 0 97 97" fill="none" xmlns="http://www.w3.org/2000/svg">
<path fill-rule="evenodd" clip-rule="evenodd" d="M64.7778 48.6415C71.8219 41.5975 71.8219 30.1767 64.7778 23.1327C57.7337 16.0886 46.313 16.0886 39.2689 23.1327L12.3429 50.0587C5.2988 57.1028 5.29879 68.5235 12.3429 75.5676C17.3879 80.6126 24.6779 82.0443 30.9972 79.8628C31.0428 79.8494 31.0892 79.8343 31.1364 79.8176C33.5867 78.9484 35.8867 77.5334 37.8475 75.5725C37.8555 75.5645 37.8633 75.5565 37.8709 75.5484L56.2813 57.138L56.2719 57.1481L59.1304 54.2897C59.1351 54.2849 59.1396 54.2802 59.1438 54.2755L64.7778 48.6415ZM25.0954 55.7972C21.2213 55.7972 18.0808 58.9377 18.0808 62.8118C18.0808 66.6858 21.2213 69.8264 25.0954 69.8264C28.9694 69.8264 32.1099 66.6858 32.1099 62.8118C32.1099 58.9377 28.9694 55.7972 25.0954 55.7972ZM12.0683 62.8118C12.0683 55.6171 17.9007 49.7847 25.0954 49.7847C32.29 49.7847 38.1224 55.6171 38.1224 62.8118C38.1224 70.0064 32.29 75.8389 25.0954 75.8389C17.9007 75.8389 12.0683 70.0064 12.0683 62.8118ZM42.5765 81.0379C41.9618 81.0379 41.6643 80.2587 42.099 79.824L69.025 52.898C69.0269 52.8962 69.0293 52.8951 69.0319 52.8951L88.8992 52.8951C92.4771 52.8951 94.2624 57.2269 91.7235 59.7478L71.454 79.874C70.7032 80.6195 69.6879 81.0379 68.6298 81.0379L42.5765 81.0379Z" fill="white" fill-opacity="0.2"/>
</svg>
